<svg aria-hidden="true" style="position: absolute; width: 0; height: 0; overflow: hidden; fill: current-color;" version="1.1" xmlns="http://www.w3.org/2000/svg" xmlns:xlink="http://www.w3.org/1999/xlink">
<defs>
<!-- logo -->
<symbol id="logo" viewBox="0 0 32 32">
<path d="M30.553 4.76l-1.78-0.477c-2.118-0.578-4.369-0.485-6.438 0.268-1.18 0.385-1.247 0.394-2.416 0.013-2.154-1.015-5.049-0.833-7.118 0.409l-0.060 0.025c-0.454 0.225-0.741 0.688-0.741 1.195v0.474h-1.333v-1.333c0-1.422-1.245-2.667-2.667-2.667h-5.425c-1.422 0-2.575 1.153-2.575 2.575v5.425c0 0.207 0.048 0.411 0.141 0.596l1.333 2.667c0.226 0.452 0.688 0.737 1.193 0.737h5.333c0.505 0 0.967-0.285 1.193-0.737l1.333-2.667c0.093-0.185 0.141-0.389 0.141-0.596v-1.333h1.333v1.333c0 0.503 0.284 0.964 0.733 1.191l0.153 0.077c2.033 1.153 4.958 1.318 7.094 0.332 1.107-0.388 1.124-0.388 2.37 0.048 2.058 0.699 4.287 0.789 6.397 0.268l1.797-0.481c0.94-0.258 1.455-1.082 1.455-1.989v-3.363c0-0.908-0.514-1.733-1.447-1.989zM8 10.352l-0.824 1.648h-3.685l-0.824-1.648v-5.019h5.333v5.019zM29.333 9.665l-1.25 0.335c-1.592 0.393-3.302 0.324-4.864-0.207-1.807-0.632-2.451-0.632-4.245 0.006-1.277 0.584-2.992 0.568-4.308 0.035v-2.82c1.351-0.572 3.006-0.584 4.166-0.013l0.174 0.071c1.788 0.584 2.41 0.584 4.197 0 1.593-0.579 3.281-0.649 4.872-0.214l1.256 0.337v2.47z"></path>
<path d="M6.277 17.4c-0.521-0.521-1.365-0.521-1.885-0l-2.829 2.828c-2.082 2.084-2.082 5.459-0.001 7.543 2.084 2.084 5.46 2.084 7.543 0s2.083-5.46 0-7.543l-2.828-2.828zM7.219 25.885c-1.042 1.042-2.73 1.042-3.772 0-1.041-1.042-1.041-2.73 0-3.772l1.886-1.885 1.885 1.885c1.042 1.042 1.042 2.73 0 3.772z"></path>
</symbol>
<!--Reviews-->
<symbol id="bad-stinky" viewBox="0 0 32 32">
<path fill="#fff" style="fill: var(--color1, #fff)" d="M-3.2-3.2h38.4v38.4h-38.4v-38.4z"></path>
<path fill="#8dd02b" style="fill: var(--color2, #8dd02b)" d="M19.102 16.495l-0.105-0.004-0.104-0.008-0.105-0.005-0.105-0.003-0.105-0.003-0.105-0.008-0.105-0.009-0.105-0.001-0.105 0.002-0.105-0.009-0.105-0.007-0.105-0.008-0.105 0.002-0.105-0.002-0.105 0-0.105-0.011-0.105-0.001-0.105 0.001-0.105-0.008-0.109 0.008-0.109-0.002-0.109-0.004-0.109-0.004-0.109 0.005-0.109 0.001-0.109 0.007-0.109-0.007-0.109 0.011-0.109-0.006-0.109 0.002-0.109 0.008h-0.109l-0.109 0.009-0.109 0.007-0.109 0-0.109 0.007-0.109 0.003-0.108 0.011-0.109 0.008-0.108 0.010-0.109 0.009-0.112 0.005 0.001 0.108-0.007 0.105 0.001 0.084-0.046-0.024-0.098-0.045-0.101-0.038-0.1-0.039-0.102-0.035-0.105-0.025-0.106-0.021-0.105-0.024-0.107-0.012-0.107-0.009-0.106 0.005-0.104 0.018-0.102 0.026-0.098 0.039-0.092 0.050-0.082 0.066-0.070 0.079-0.055 0.089-0.045 0.095-0.029 0.101-0.019 0.103-0.007 0.105 0.008 0.105 0.012 0.104 0.017 0.104 0.035 0.099 0.030 0.101 0.038 0.098 0.049 0.093 0.043 0.096 0.060 0.087 0.054 0.090 0.056 0.089 0.063 0.085 0.066 0.082 0.065 0.083 0.072 0.077 0.070 0.079 0.074 0.076 0.075 0.075 0.082 0.066 0.079 0.070 0.082 0.067 0.085 0.062 0.090 0.055 0.086 0.061 0.092 0.053 0.094 0.049 0.097 0.041 0.096 0.044 0.099 0.039 0.102 0.028 0.104 0.023 0.105 0.017 0.106 0.005 0.105 0.004h0.010l0.034 0.077 0.037 0.1 0.041 0.099 0.048 0.094 0.075 0.076 0.077 0.073 0.098 0.043 0.101 0.031 0.108 0.017 0.107 0.023 0.109 0.012 0.108 0.015 0.108 0.017 0.109 0.005 0.109 0.006 0.109 0.006 0.109 0.003 0.109 0.003 0.109 0.002 0.109-0.003 0.109-0.010 0.109-0.003 0.109-0.011 0.108-0.012 0.108-0.017 0.108-0.012 0.108-0.019 0.108-0.018 0.107-0.021 0.093-0.034 0.087-0.045 0.079-0.058 0.071-0.069 0.047-0.086 0.045-0.087 0.029-0.103 0.038-0.1 0.038-0.099 0.041-0.098 0.027-0.104 0.035-0.1 0.032-0.102 0.038-0.1 0.027-0.103 0.031-0.102 0.031-0.102 0.030-0.102 0.024-0.104 0.033-0.102 0.025-0.103 0.034-0.102 0.022-0.104 0.026-0.103 0.021-0.104 0.027-0.103 0.022-0.104 0.015-0.106 0.013-0.106 0.027-0.103 0.016-0.105 0.019-0.105 0.009-0.106 0.015-0.106 0.016-0.105 0.005-0.107 0.010-0.106 0.009-0.108zM14.894 19.004l-0.103-0.025-0.102-0.029-0.099-0.038-0.098-0.039-0.094-0.049-0.096-0.043-0.091-0.054-0.089-0.056-0.090-0.055-0.084-0.064-0.080-0.069-0.081-0.068-0.069-0.080-0.071-0.078-0.064-0.084-0.062-0.085-0.052-0.091-0.051-0.092-0.046-0.096-0.039-0.1-0.033-0.102-0.023-0.105 0-0.107 0.010-0.105 0.041-0.098 0.070-0.081 0.096-0.047 0.103-0.029 0.107-0.007 0.107 0.008 0.105 0.020 0.104 0.027 0.102 0.033 0.099 0.041 0.1 0.040 0.095 0.050 0.095 0.051 0.089 0.060 0.027 0.019 0.009 0.072 0.011 0.104 0.017 0.104 0.010 0.105 0.021 0.103 0.016 0.104 0.030 0.101 0.020 0.103 0.015 0.104 0.030 0.101 0.029 0.101 0.026 0.102 0.033 0.101 0.025 0.104 0.031 0.102 0.035 0.101 0.017 0.044-0.006-0.001z"></path>
<path fill="#510303" style="fill: var(--color3, #510303)" d="M18.89 17.124v0l-0.015 0.104-0.014 0.102-0.022 0.101-0.016 0.102-0.013 0.102-0.023 0.101-0.023 0.1-0.020 0.101-0.018 0.086-0.003 0.015-0.031 0.099-0.020 0.102-0.028 0.1-0.026 0.101-0.032 0.099-0.024 0.102-0.035 0.098-0.031 0.099-0.028 0.1-0.032 0.099-0.028 0.1-0.034 0.098-0.039 0.096-0.029 0.1-0.039 0.097-0.034 0.098-0.044 0.093-0.057 0.086-0.081 0.064-0.089 0.052-0.096 0.039-0.105 0.018-0.102 0.026-0.105 0.016-0.106 0.009-0.104 0.014-0.106 0.010-0.105 0.013-0.106-0.001-0.105 0.008-0.211-0.003-0.106-0.002-0.105-0.010-0.106-0.004-0.105-0.010-0.105-0.015-0.104-0.019-0.105-0.014-0.103-0.024-0.11-0.034-0.097-0.063-0.086-0.078-0.054-0.102-0.047-0.1-0.038-0.104-0.045-0.101-0.035-0.105-0.036-0.104-0.077-0.207-0.033-0.106-0.031-0.106-0.038-0.104-0.033-0.106-0.028-0.099-0.020-0.101-0.025-0.1-0.027-0.099-0.016-0.102-0.002-0.009-0.020-0.096-0.015-0.106-0.022-0.104-0.012-0.106-0.007-0.107-0.013-0.106-0.010-0.106-0.005-0.107-0.001-0.104 0.041-0.003 0.067-0.006 0.111-0.003 0.031-0.001 0.080-0.003 0.111-0.006 0.111-0.004 0.111-0.004 0.111-0.002 0.072 0.002 0.039 0.001 0.026-0.002 0.084-0.007 0.103-0.002h0.008l0.106 0.003 0.106-0.002 0.106-0.006 0.106 0.001 0.107 0.001 0.105-0.002 0.047 0.002 0.059 0.002h0.041l0.065-0 0.063 0.002 0.043 0.002 0.078-0.003 0.028-0.001 0.068 0.002 0.038 0.001 0.045 0 0.061 0 0.108 0.003 0.022 0h0.013l0.074 0.001 0.048 0.003 0.060 0.004 0.108-0.003 0.006 0.001 0.102 0.009 0.029-0.001 0.079-0.002 0.016 0.001 0.092 0.007 0.108 0 0.108 0.005 0.031 0.003 0.077 0.008 0.108 0.002 0.108 0.006h0.041l0.067 0 0.003 0 0.105 0.011 0.099 0.002z"></path>
<path fill="#510303" style="fill: var(--color3, #510303)" d="M18.89 17.125l-0.015 0.104-0.014 0.102-0.022 0.101-0.016 0.102-0.013 0.102-0.023 0.101-0.023 0.1-0.020 0.101-0.018 0.086-0.047-0.010-0.1-0.022-0.102-0.019-0.103-0.009-0.103-0.002-0.103 0.013-0.107 0.026-0.106 0.034-0.11 0.021-0.111 0.012-0.112-0.006-0.111-0.009-0.108-0.028-0.109-0.023-0.11-0.015-0.111-0.009-0.111-0.008-0.111 0.002-0.111 0.012-0.11 0.015-0.111 0.011-0.11 0.013-0.117 0.003-0.117-0.007-0.113-0.033-0.115-0.024-0.117-0.011-0.117-0.001-0.117 0.001-0.107 0.004-0.107 0.008-0.107 0.014-0.105 0.023-0.104 0.026-0.072 0.018-0.020-0.096-0.015-0.106-0.022-0.104-0.012-0.106-0.007-0.107-0.013-0.106-0.010-0.106-0.005-0.107-0.001-0.104 0.041-0.003 0.037-0 0.094-0.007 0.019-0.002 0.059-0.001 0.055-0.001 0.114-0.004 0.113-0.005 0.114-0.004 0.114-0.001 0.087-0.003 0.065-0.002 0.076-0.001 0.112-0.008h0.002l0.109-0.001 0.093 0.002 0.016 0.001 0.109-0.004 0.109-0.002 0.109 0 0.109-0.001 0.109 0.001 0.029 0.002 0.080 0.004 0.049-0.002 0.060-0.003 0.061 0.001 0.048 0.001h0.048l0.061-0 0.023 0.002 0.086 0.006 0.105-0.002 0.006-0 0.007 0 0.104 0.004h0.111l0.065 0.001 0.016 0 0.029 0 0.102 0.008 0.009 0.001 0.086-0.002 0.025-0 0.11 0.004 0.051 0.004 0.060 0.004 0.221 0.009 0.11 0.005 0.111 0.007 0.054-0 0.057-0.001 0.11 0.012 0.038 0.001z"></path>
<path fill="#8dd02b" style="fill: var(--color2, #8dd02b)" d="M17.333 13.966c-0.125-0.044-0.257-0.020-0.385 0.004-0.077 0.014-0.169 0.021-0.217-0.065-0.058-0.103-0.008-0.257 0.059-0.347s0.154-0.162 0.188-0.284c0.037-0.134-0.006-0.292-0.082-0.388s-0.178-0.137-0.278-0.159c-0.301-0.066-0.612 0.028-0.912-0.043-0.055-0.013-0.112-0.033-0.153-0.087s-0.061-0.148-0.029-0.213c-0.093 0.111-0.061 0.342 0.032 0.453s0.222 0.135 0.344 0.153c0.121 0.018 0.25 0.038 0.346 0.144 0.033 0.037 0.062 0.086 0.071 0.144 0.019 0.125-0.058 0.238-0.138 0.299-0.093 0.071-0.199 0.108-0.289 0.186s-0.167 0.22-0.149 0.368c0.015 0.123 0.092 0.214 0.175 0.256s0.172 0.047 0.259 0.063c0.052 0.010 0.114 0.039 0.122 0.112 0.008 0.077-0.052 0.13-0.102 0.16-0.091 0.054-0.185 0.11-0.254 0.209s-0.108 0.257-0.065 0.383c0.037 0.109 0.122 0.166 0.204 0.2 0.095 0.040 0.195 0.060 0.295 0.059 0.106-0.001 0.217-0.023 0.313 0.042 0.204 0.139 0.064 0.401-0.035 0.558-0.126 0.2-0.283 0.299-0.463 0.358 0.179-0.059 0.36-0.119 0.523-0.237s0.31-0.303 0.376-0.547c0.016-0.058 0.026-0.12 0.021-0.182-0.015-0.164-0.139-0.266-0.255-0.289s-0.235 0.005-0.35-0.028c-0.060-0.017-0.126-0.067-0.133-0.153s0.050-0.155 0.104-0.199c0.291-0.236 0.646-0.26 0.947-0.471 0.029-0.020 0.058-0.043 0.078-0.079 0.038-0.070 0.029-0.176-0.008-0.247s-0.098-0.111-0.158-0.133z"></path>
<path fill="#8dd02b" style="fill: var(--color2, #8dd02b)" d="M17.187 12.891c-0.004 0.001-0.009 0.001-0.013 0.002 0.005-0.001 0.009-0.002 0.013-0.002z"></path>
<path fill="#8dd02b" style="fill: var(--color2, #8dd02b)" d="M18.002 13.344c-0.051-0.011-0.104-0.013-0.155-0.004-0.046 0.007-0.094 0.025-0.124 0.075-0.028 0.047-0.033 0.114-0.025 0.174s0.029 0.115 0.050 0.169c-0.062-0.086-0.151-0.132-0.238-0.124-0.045 0.004-0.090 0.023-0.135 0.018s-0.093-0.045-0.1-0.108c-0.009-0.082 0.052-0.141 0.088-0.207 0.048-0.088 0.053-0.218 0.012-0.313-0.038-0.090-0.115-0.143-0.188-0.133 0.127-0.016 0.189 0.194 0.11 0.329-0.041 0.070-0.101 0.113-0.148 0.174s-0.084 0.158-0.059 0.242c0.027 0.090 0.109 0.114 0.178 0.123 0.121 0.016 0.246 0.024 0.354 0.102s0.195 0.246 0.169 0.414c-0.010 0.066-0.037 0.126-0.068 0.177-0.036 0.061-0.080 0.114-0.128 0.154-0.235 0.194-0.557 0.059-0.786 0.267-0.019 0.018-0.039 0.039-0.046 0.070-0.010 0.039 0.002 0.085 0.022 0.115s0.048 0.047 0.076 0.062c0.081 0.042 0.167 0.068 0.238 0.138s0.12 0.205 0.083 0.315c0.067-0.12 0.050-0.316-0.035-0.41-0.021-0.023-0.048-0.047-0.046-0.085 0.001-0.016 0.007-0.031 0.014-0.044 0.045-0.085 0.121-0.126 0.196-0.14s0.15-0.006 0.225-0.013c0.095-0.010 0.189-0.045 0.274-0.105 0.117-0.081 0.226-0.228 0.229-0.413 0.001-0.117-0.040-0.225-0.084-0.323s-0.093-0.198-0.108-0.312c-0.015-0.115 0.014-0.251 0.089-0.299 0.023-0.014 0.048-0.020 0.073-0.018 0.057 0.004 0.121 0.074 0.102 0.151 0.031-0.035 0.026-0.108 0-0.15s-0.067-0.058-0.106-0.067z"></path>
<path fill="#8dd02b" style="fill: var(--color2, #8dd02b)" d="M15.297 13.591c0 0.001 0.001 0.002 0.001 0.003-0-0.001-0.001-0.002-0.001-0.003z"></path>
<path fill="#8dd02b" style="fill: var(--color2, #8dd02b)" d="M15.299 13.594c0.003 0.005 0.005 0.010 0.008 0.014-0.003-0.004-0.006-0.009-0.008-0.014z"></path>
<path fill="#8dd02b" style="fill: var(--color2, #8dd02b)" d="M15.518 14.182c-0.027-0.096-0.016-0.206 0.011-0.303s0.068-0.182 0.121-0.252c0.046-0.061 0.101-0.11 0.135-0.185 0.010-0.023 0.019-0.049 0.017-0.076-0.003-0.040-0.026-0.071-0.050-0.093-0.093-0.087-0.214-0.11-0.32-0.060-0.057 0.027-0.111 0.078-0.14 0.153-0.026 0.069-0.027 0.16 0.005 0.223-0.018-0.038-0.018-0.091-0.004-0.133 0.016-0.048 0.049-0.083 0.084-0.102s0.078-0.024 0.109 0.006c0.039 0.037 0.046 0.117 0.032 0.18s-0.047 0.114-0.076 0.166c-0.066 0.115-0.124 0.246-0.14 0.393s0.018 0.312 0.104 0.396c0.044 0.043 0.097 0.061 0.149 0.072 0.205 0.042 0.417-0.027 0.62 0.035-0.030-0.030-0.373-0.086-0.497-0.192-0.066-0.056-0.131-0.128-0.159-0.23z"></path>
<path fill="#8dd02b" style="fill: var(--color2, #8dd02b)" d="M17.022 13.345c-0.037 0.071-0.079 0.137-0.122 0.2 0.048-0.055 0.091-0.124 0.122-0.2z"></path>
<path fill="#8dd02b" style="fill: var(--color2, #8dd02b)" d="M17.174 11.674c0.037 0.013 0.082 0.059 0.065 0.108-0.004 0.013-0.013 0.023-0.022 0.032-0.221 0.224-0.564 0.088-0.768 0.343-0.045 0.056-0.081 0.14-0.066 0.221 0.011 0.060 0.047 0.105 0.086 0.133 0.087 0.062 0.19 0.054 0.285 0.084 0.128 0.040 0.248 0.158 0.299 0.329 0.043 0.144 0.023 0.294-0.030 0.421 0.028-0.054 0.053-0.111 0.072-0.174 0.044-0.145 0.051-0.32-0.007-0.454-0.085-0.199-0.274-0.244-0.403-0.389-0.021-0.023-0.042-0.056-0.040-0.093 0.003-0.051 0.046-0.075 0.081-0.087 0.14-0.050 0.279-0.1 0.419-0.151 0.045-0.016 0.094-0.036 0.122-0.089 0.024-0.045 0.027-0.111 0.007-0.161s-0.061-0.080-0.101-0.074z"></path>
<path fill="#8dd02b" style="fill: var(--color2, #8dd02b)" d="M15.358 14.672c-0.091-0.069-0.137-0.224-0.138-0.37-0.002-0.188 0.070-0.349 0.056-0.537-0.044 0.16-0.102 0.319-0.127 0.488-0.025 0.172-0 0.375 0.102 0.474 0.089 0.087 0.208 0.068 0.315 0.046 0.148-0.030 0.296-0.061 0.444-0.091-0.141 0.010-0.282 0.020-0.423 0.031-0.078 0.006-0.16 0.010-0.229-0.041z"></path>
<path fill="#8dd02b" style="fill: var(--color2, #8dd02b)" d="M17.241 15.174c0.002 0.007 0.004 0.014 0.008 0.020-0.002-0.006-0.005-0.013-0.008-0.020z"></path>
<path fill="#8dd02b" style="fill: var(--color2, #8dd02b)" d="M17.971 14.022c0.057 0.068 0.112 0.145 0.142 0.242 0.060 0.197-0.002 0.441-0.12 0.577s-0.277 0.179-0.429 0.169c-0.081-0.005-0.166-0.026-0.246-0-0.029 0.009-0.084 0.026-0.096 0.073-0.009 0.033 0.007 0.061 0.019 0.090-0.012-0.045 0.009-0.099 0.038-0.121 0.036-0.027 0.079-0.020 0.12-0.012 0.113 0.021 0.227 0.040 0.34 0.028s0.228-0.060 0.316-0.161c0.089-0.101 0.149-0.26 0.14-0.421-0.011-0.193-0.115-0.349-0.225-0.464z"></path>
<path fill="#8dd02b" style="fill: var(--color2, #8dd02b)" d="M16.16 13.126c-0.106-0.059-0.22-0.089-0.334-0.089 0.096 0 0.2 0.035 0.278 0.115 0.041 0.041 0.076 0.108 0.066 0.178-0.007 0.050-0.035 0.088-0.064 0.118-0.054 0.054-0.116 0.090-0.175 0.13s-0.119 0.087-0.162 0.157-0.070 0.169-0.053 0.259c-0.009-0.082 0.026-0.163 0.072-0.215s0.102-0.081 0.155-0.115c0.078-0.050 0.153-0.113 0.221-0.187 0.029-0.032 0.058-0.066 0.076-0.112s0.024-0.104 0.007-0.15c-0.017-0.046-0.053-0.070-0.087-0.089z"></path>
<path fill="#8dd02b" style="fill: var(--color2, #8dd02b)" d="M16.67 15.72c-0.032-0.029-0.070-0.041-0.107-0.049-0.148-0.032-0.299-0.019-0.449-0.041-0.062-0.009-0.124-0.025-0.179-0.067-0.083-0.065-0.141-0.192-0.147-0.327-0.010-0.213 0.103-0.394 0.224-0.496-0.077 0.048-0.155 0.106-0.215 0.193-0.076 0.112-0.116 0.271-0.107 0.426 0.003 0.052 0.012 0.105 0.031 0.15 0.021 0.049 0.053 0.086 0.088 0.115 0.108 0.092 0.237 0.118 0.363 0.124s0.252-0.008 0.377 0.012c0.038 0.006 0.081 0.020 0.102 0.066 0.012 0.027 0.013 0.060 0.012 0.091-0.003 0.078-0.026 0.155-0.062 0.214 0.035-0.056 0.067-0.117 0.095-0.18 0.013-0.030 0.026-0.062 0.028-0.097 0.002-0.054-0.022-0.104-0.054-0.134z"></path>
<path fill="#a3d727" style="fill: var(--color4, #a3d727)" d="M16.458 13.123c-0.031-0.056-0.082-0.082-0.13-0.104-0.156-0.069-0.318-0.111-0.482-0.124 0.058 0.005 0.11 0.043 0.166 0.062 0.061 0.020 0.122 0.035 0.181 0.062 0.095 0.044 0.19 0.133 0.214 0.271 0.013 0.076 0.002 0.16-0.030 0.224-0.029 0.059-0.074 0.1-0.12 0.132-0.067 0.047-0.139 0.079-0.208 0.122s-0.135 0.098-0.182 0.181c-0.018 0.032-0.033 0.069-0.033 0.11 0 0.051 0.024 0.097 0.053 0.129 0.056 0.062 0.129 0.086 0.199 0.102s0.143 0.028 0.207 0.074 0.118 0.134 0.117 0.236c0.016-0.070-0.003-0.149-0.036-0.205s-0.080-0.092-0.127-0.124c-0.047-0.032-0.095-0.060-0.137-0.103-0.019-0.019-0.037-0.043-0.046-0.073-0.016-0.052-0.002-0.114 0.024-0.157s0.061-0.071 0.096-0.098 0.139-0.112 0.204-0.178c0.033-0.033 0.066-0.070 0.088-0.12 0.035-0.081 0.034-0.184 0.021-0.278-0.007-0.050-0.017-0.102-0.040-0.142z"></path>
<path fill="#a3d727" style="fill: var(--color4, #a3d727)" d="M16.674 13.997c-0.008-0.010-0.017-0.020-0.025-0.032 0.007 0.012 0.016 0.022 0.025 0.032z"></path>
<path fill="#a3d727" style="fill: var(--color4, #a3d727)" d="M17.277 14.065c-0.042-0.019-0.087-0.023-0.131-0.026-0.085-0.005-0.17-0.003-0.254 0.005-0.043 0.004-0.087 0.010-0.129 0.002-0.032-0.006-0.062-0.022-0.088-0.048 0.057 0.064 0.122 0.087 0.197 0.094 0.074 0.007 0.152 0.009 0.216 0.062 0.013 0.011 0.025 0.024 0.032 0.042 0.012 0.029 0.007 0.067-0.006 0.096s-0.032 0.049-0.052 0.067c-0.15 0.139-0.33 0.195-0.5 0.274-0.092 0.043-0.182 0.093-0.269 0.151-0.102 0.067-0.209 0.158-0.241 0.31-0.015 0.070-0.010 0.153 0.023 0.209 0.029 0.048 0.074 0.071 0.117 0.085 0.184 0.061 0.382 0.015 0.558 0.11-0.138-0.095-0.298-0.1-0.446-0.159-0.049-0.020-0.103-0.053-0.119-0.122-0.009-0.039-0.004-0.081 0.006-0.119 0.041-0.156 0.151-0.249 0.257-0.321 0.111-0.075 0.225-0.139 0.342-0.191 0.165-0.074 0.34-0.128 0.481-0.272 0.024-0.024 0.047-0.052 0.060-0.089s0.014-0.085-0.004-0.118c-0.012-0.021-0.031-0.033-0.049-0.041z"></path>
<path fill="#a3d727" style="fill: var(--color4, #a3d727)" d="M16.341 14.281c0.007 0.011 0.014 0.021 0.021 0.032-0.006-0.012-0.013-0.023-0.021-0.032z"></path>
<path fill="#a3d727" style="fill: var(--color4, #a3d727)" d="M16.296 13.83c-0.036 0.025-0.075 0.047-0.106 0.085s-0.053 0.095-0.045 0.152c0.009 0.067 0.055 0.109 0.098 0.137 0.034 0.022 0.071 0.042 0.098 0.076-0.025-0.037-0.054-0.070-0.085-0.097s-0.067-0.057-0.071-0.108c-0.002-0.025 0.004-0.050 0.013-0.072 0.057-0.142 0.204-0.175 0.243-0.335-0.038 0.068-0.090 0.123-0.145 0.161z"></path>
<path fill="#a3d727" style="fill: var(--color4, #a3d727)" d="M16.785 15.357c-0.016 0.002-0.033 0.004-0.050 0.006 0.005 0.001 0.009 0.001 0.014 0.002 0.050 0.011 0.099 0.042 0.13 0.098 0.026 0.048 0.037 0.109 0.039 0.169 0.009 0.229-0.094 0.438-0.215 0.589 0.128-0.128 0.227-0.312 0.281-0.52 0.023-0.090 0.036-0.201-0.007-0.274-0.044-0.075-0.124-0.075-0.192-0.070z"></path>
<path fill="#a3d727" style="fill: var(--color4, #a3d727)" d="M16.61 15.369c0.040 0.006 0.084-0 0.126-0.006-0.041-0.006-0.087-0.009-0.126 0.006z"></path>
<path fill="#a3d727" style="fill: var(--color4, #a3d727)" d="M15.425 14.393c-0.025-0.030-0.039-0.075-0.048-0.119-0.010-0.048-0.017-0.098-0.015-0.148 0.007-0.174 0.116-0.289 0.138-0.453-0.033 0.047-0.053 0.123-0.080 0.178-0.053 0.112-0.101 0.23-0.096 0.37 0.004 0.109 0.046 0.218 0.115 0.265 0.043 0.029 0.092 0.033 0.14 0.036 0.088 0.006 0.176 0.012 0.264 0.018-0.117-0.052-0.244-0.051-0.361-0.106-0.020-0.010-0.041-0.021-0.057-0.041z"></path>
<path fill="#a3d727" style="fill: var(--color4, #a3d727)" d="M17.145 13.593c0-0.021 0.008-0.039 0.017-0.056 0.036-0.074 0.085-0.134 0.124-0.205 0.035-0.064 0.068-0.15 0.059-0.234-0.005 0.060-0.012 0.112-0.039 0.161-0.025 0.046-0.059 0.082-0.093 0.114-0.043 0.042-0.091 0.086-0.105 0.158-0.012 0.063 0.009 0.135 0.049 0.167 0.027 0.021 0.059 0.024 0.089 0.028 0.087 0.010 0.173 0.028 0.258 0.054-0.096-0.063-0.211-0.043-0.307-0.104-0.025-0.016-0.052-0.044-0.052-0.083z"></path>
<path fill="#a3d727" style="fill: var(--color4, #a3d727)" d="M17.764 14.545c-0.015 0.012-0.031 0.024-0.047 0.034 0.016-0.009 0.032-0.021 0.047-0.034z"></path>
<path fill="#a3d727" style="fill: var(--color4, #a3d727)" d="M17.94 13.357c0.008-0.001 0.016-0.002 0.024-0.002-0.008 0-0.016 0.001-0.024 0.002z"></path>
<path fill="#a3d727" style="fill: var(--color4, #a3d727)" d="M17.805 13.43c0.040-0.043 0.086-0.067 0.135-0.074-0.086 0.009-0.187 0.035-0.21 0.174-0.015 0.095 0.025 0.188 0.060 0.271 0.063 0.147 0.12 0.317 0.096 0.487-0.014 0.104-0.060 0.198-0.123 0.256 0.041-0.034 0.079-0.074 0.11-0.126 0.042-0.070 0.068-0.163 0.061-0.254-0.005-0.065-0.026-0.124-0.046-0.183-0.033-0.095-0.067-0.191-0.1-0.287-0.021-0.060-0.043-0.129-0.025-0.192 0.008-0.030 0.025-0.054 0.043-0.073z"></path>
<path fill="#a3d727" style="fill: var(--color4, #a3d727)" d="M17.129 15.236c0.007 0.007 0.014 0.014 0.022 0.021-0.007-0.007-0.014-0.014-0.022-0.021z"></path>
<path fill="#a3d727" style="fill: var(--color4, #a3d727)" d="M17.012 14.89c0.034-0.022 0.073-0.028 0.11-0.035 0.161-0.033 0.318-0.098 0.465-0.192-0.174 0.111-0.368 0.104-0.553 0.141-0.038 0.008-0.077 0.018-0.113 0.040s-0.068 0.058-0.086 0.107c-0.005 0.013-0.009 0.028-0.007 0.044 0.002 0.026 0.019 0.044 0.035 0.057 0.085 0.072 0.185 0.108 0.267 0.184-0.045-0.043-0.089-0.088-0.132-0.133-0.020-0.021-0.041-0.045-0.048-0.079-0.011-0.056 0.024-0.111 0.062-0.134z"></path>
<path fill="#a3d727" style="fill: var(--color4, #a3d727)" d="M16.599 12.137c0.040-0.037 0.089-0.052 0.135-0.067 0.102-0.034 0.203-0.075 0.302-0.123-0.124 0.037-0.247 0.076-0.372 0.108-0.025 0.007-0.050 0.013-0.075 0.024-0.050 0.023-0.095 0.066-0.129 0.123-0.011 0.019-0.021 0.039-0.027 0.062-0.013 0.052-0.002 0.111 0.023 0.154s0.059 0.071 0.096 0.087 0.075 0.023 0.113 0.031c0.060 0.012 0.12 0.027 0.178 0.056s0.112 0.070 0.156 0.131c-0.064-0.119-0.167-0.183-0.269-0.22-0.042-0.015-0.085-0.027-0.123-0.056s-0.071-0.079-0.075-0.14c-0.005-0.068 0.027-0.132 0.067-0.169z"></path>
</symbol>
<symbol id="bad" viewBox="0 0 32 32">
<path fill="#fff" style="fill: var(--color1, #fff)" d="M-3.2-3.2h38.4v38.4h-38.4v-38.4z"></path>
<path fill="#8dd02b" style="fill: var(--color2, #8dd02b)" d="M19.102 16.084l-0.105-0.004-0.104-0.008-0.105-0.005-0.105-0.002-0.105-0.004-0.105-0.008-0.105-0.009-0.105-0.001-0.105 0.002-0.105-0.008-0.105-0.008-0.105-0.007-0.105 0.002-0.105-0.002-0.105 0-0.105-0.011-0.105-0-0.105 0-0.105-0.008-0.109 0.008-0.109-0.002-0.109-0.004-0.109-0.004-0.109 0.005-0.109 0-0.109 0.007-0.109-0.007-0.109 0.011-0.109-0.006-0.109 0.002-0.109 0.008-0.109 0-0.109 0.009-0.109 0.007h-0.109l-0.109 0.007-0.109 0.003-0.108 0.011-0.109 0.008-0.108 0.011-0.109 0.009-0.112 0.005 0.001 0.108-0.007 0.105 0.001 0.084-0.046-0.024-0.098-0.045-0.101-0.038-0.1-0.039-0.102-0.035-0.105-0.025-0.106-0.021-0.105-0.023-0.107-0.013-0.107-0.009-0.106 0.005-0.104 0.018-0.102 0.026-0.098 0.039-0.092 0.050-0.082 0.066-0.070 0.079-0.055 0.089-0.045 0.095-0.029 0.101-0.019 0.103-0.007 0.105 0.008 0.104 0.012 0.104 0.017 0.103 0.035 0.099 0.030 0.1 0.038 0.098 0.049 0.093 0.043 0.097 0.060 0.087 0.054 0.090 0.056 0.089 0.063 0.085 0.066 0.082 0.065 0.083 0.072 0.077 0.070 0.079 0.074 0.076 0.075 0.075 0.082 0.066 0.079 0.070 0.082 0.068 0.085 0.062 0.090 0.055 0.086 0.061 0.092 0.053 0.094 0.049 0.097 0.042 0.096 0.044 0.099 0.039 0.102 0.028 0.104 0.023 0.105 0.017 0.106 0.005 0.105 0.004h0.010l0.034 0.077 0.037 0.1 0.041 0.099 0.048 0.095 0.075 0.076 0.077 0.073 0.098 0.043 0.101 0.031 0.108 0.017 0.107 0.023 0.109 0.011 0.108 0.016 0.108 0.017 0.109 0.005 0.109 0.007 0.109 0.005 0.109 0.003 0.109 0.003 0.109 0.002 0.109-0.003 0.109-0.010 0.109-0.003 0.109-0.011 0.108-0.012 0.108-0.017 0.108-0.012 0.108-0.019 0.108-0.018 0.107-0.021 0.093-0.034 0.087-0.045 0.079-0.059 0.071-0.069 0.047-0.086 0.045-0.087 0.029-0.103 0.038-0.1 0.038-0.099 0.041-0.098 0.027-0.103 0.035-0.101 0.032-0.101 0.038-0.1 0.027-0.103 0.031-0.102 0.031-0.102 0.030-0.102 0.024-0.104 0.033-0.101 0.025-0.104 0.034-0.101 0.022-0.104 0.026-0.103 0.021-0.104 0.027-0.103 0.022-0.104 0.015-0.106 0.013-0.106 0.027-0.103 0.016-0.105 0.019-0.105 0.009-0.106 0.015-0.105 0.016-0.105 0.005-0.106 0.010-0.106 0.009-0.108zM14.894 18.593l-0.103-0.025-0.102-0.028-0.099-0.038-0.098-0.039-0.094-0.048-0.096-0.044-0.091-0.054-0.089-0.056-0.090-0.056-0.084-0.064-0.080-0.069-0.081-0.068-0.069-0.080-0.071-0.078-0.064-0.084-0.062-0.086-0.052-0.091-0.051-0.092-0.046-0.097-0.039-0.1-0.033-0.102-0.023-0.104 0-0.107 0.010-0.106 0.041-0.098 0.070-0.081 0.096-0.047 0.103-0.029 0.107-0.006 0.107 0.008 0.105 0.020 0.104 0.027 0.102 0.033 0.099 0.041 0.1 0.040 0.095 0.050 0.095 0.051 0.089 0.060 0.027 0.019 0.009 0.072 0.011 0.104 0.017 0.104 0.010 0.105 0.021 0.103 0.016 0.104 0.030 0.101 0.020 0.103 0.015 0.104 0.030 0.101 0.029 0.101 0.026 0.102 0.033 0.102 0.025 0.104 0.031 0.103 0.035 0.101 0.017 0.044-0.006-0.002z"></path>
<path fill="#510303" style="fill: var(--color3, #510303)" d="M18.89 16.714l-0.015 0.104-0.014 0.102-0.022 0.101-0.016 0.102-0.013 0.102-0.023 0.101-0.023 0.101-0.020 0.101-0.018 0.087-0.003 0.014-0.031 0.099-0.020 0.102-0.028 0.1-0.026 0.101-0.032 0.099-0.024 0.101-0.035 0.098-0.031 0.099-0.028 0.1-0.032 0.099-0.028 0.1-0.034 0.098-0.039 0.097-0.029 0.1-0.039 0.097-0.034 0.098-0.044 0.092-0.057 0.086-0.081 0.064-0.089 0.052-0.096 0.039-0.105 0.018-0.102 0.026-0.105 0.016-0.106 0.009-0.104 0.014-0.106 0.010-0.105 0.013-0.106-0.001-0.105 0.008-0.106-0.002-0.106-0.001-0.106-0.002-0.105-0.010-0.106-0.004-0.105-0.010-0.105-0.015-0.104-0.019-0.105-0.014-0.103-0.024-0.11-0.033-0.097-0.063-0.086-0.078-0.054-0.102-0.047-0.101-0.038-0.104-0.045-0.101-0.035-0.105-0.036-0.104-0.077-0.207-0.033-0.106-0.031-0.106-0.038-0.104-0.033-0.106-0.028-0.099-0.020-0.101-0.025-0.1-0.027-0.099-0.016-0.101-0.002-0.009-0.020-0.095-0.015-0.106-0.022-0.104-0.012-0.106-0.007-0.106-0.013-0.106-0.010-0.106-0.005-0.106-0.001-0.104 0.041-0.003 0.067-0.006 0.111-0.003 0.031-0.001 0.080-0.003 0.111-0.006 0.111-0.004 0.111-0.004 0.111-0.002 0.072 0.001 0.039 0.001 0.026-0.002 0.084-0.008 0.103-0.002h0.008l0.106 0.003 0.106-0.002 0.106-0.007 0.106 0.001 0.107 0.001 0.105-0.002 0.047 0.002 0.059 0.003 0.041-0 0.065-0 0.063 0.002 0.043 0.002 0.078-0.003 0.028-0.001 0.068 0.002 0.038 0.001 0.045 0 0.061 0.001 0.108 0.003 0.022 0h0.013l0.074 0.001 0.048 0.003 0.060 0.004 0.098-0.003h0.010l0.006 0 0.102 0.009 0.108-0.004 0.016 0.001 0.092 0.007h0.108l0.108 0.005 0.031 0.003 0.077 0.008 0.108 0.002 0.108 0.006 0.041 0h0.067l0.003 0 0.105 0.011 0.099 0.002z"></path>
<path fill="#510303" style="fill: var(--color3, #510303)" d="M18.89 16.714l-0.015 0.104-0.014 0.102-0.022 0.101-0.016 0.102-0.013 0.102-0.023 0.101-0.023 0.101-0.020 0.101-0.018 0.087-0.047-0.010-0.1-0.023-0.102-0.019-0.103-0.009-0.103-0.002-0.103 0.012-0.107 0.026-0.106 0.034-0.11 0.021-0.111 0.012-0.112-0.006-0.111-0.009-0.108-0.028-0.109-0.023-0.11-0.015-0.111-0.009-0.111-0.008-0.111 0.002-0.111 0.012-0.11 0.015-0.111 0.010-0.11 0.013-0.117 0.003-0.117-0.007-0.113-0.033-0.115-0.024-0.117-0.011-0.117-0.002-0.117 0.001-0.107 0.004-0.107 0.008-0.107 0.014-0.105 0.023-0.104 0.026-0.072 0.018-0.020-0.095-0.015-0.106-0.022-0.104-0.012-0.106-0.007-0.106-0.013-0.106-0.010-0.106-0.005-0.106-0.001-0.104 0.041-0.003 0.037-0 0.094-0.007 0.019-0.001 0.114-0.002 0.114-0.004 0.113-0.005 0.114-0.004 0.114-0.001 0.087-0.003 0.027-0.001 0.114-0.002 0.112-0.008h0.002l0.109-0.001 0.109 0.003 0.109-0.004 0.109-0.002 0.109 0 0.109-0.001 0.038 0 0.071 0.001 0.029 0.001 0.080 0.004 0.049-0.002 0.060-0.003 0.061 0.001 0.048 0.001h0.048l0.061-0 0.023 0.002 0.086 0.006 0.105-0.002 0.006-0 0.007 0 0.104 0.004h0.111l0.065 0.001 0.046 0.001 0.11 0.008 0.111-0.003 0.11 0.004 0.111 0.008 0.111 0.004 0.111 0.004 0.11 0.005 0.095 0.007 0.016 0.001 0.111-0.001 0.11 0.012 0.038 0.001z"></path>
</symbol>
<symbol id="fire" viewBox="0 0 32 32">
<path fill="#fff" style="fill: var(--color1, #fff)" d="M-3.2-3.2h38.4v38.4h-38.4v-38.4z"></path>
<path fill="#a33df3" style="fill: var(--color5, #a33df3)" d="M14.304 18.41h2.237v-4.853h-2.237z"></path>
<path fill="#2d744b" style="fill: var(--color6, #2d744b)" d="M15.589 17.925h2.107v-3.033h-2.107z"></path>
</symbol>
<symbol id="good-fire" viewBox="0 0 32 32">
<path fill="#fff" style="fill: var(--color1, #fff)" d="M-3.2-3.2h38.4v38.4h-38.4v-38.4z"></path>
<path fill="#d9a4aa" style="fill: var(--color7, #d9a4aa)" d="M15.211 16.551h2.237v-4.853h-2.237z"></path>
<path fill="#cd9c2f" style="fill: var(--color8, #cd9c2f)" d="M16.496 16.066h2.107v-3.033h-2.107z"></path>
<path fill="#e65757" style="fill: var(--color9, #e65757)" d="M19.086 16.452l-0.105-0.004-0.104-0.009-0.105-0.005-0.105-0.002-0.105-0.004-0.105-0.008-0.105-0.009-0.105-0.001-0.105 0.002-0.105-0.009-0.105-0.008-0.105-0.007-0.105 0.002-0.105-0.002-0.105 0-0.105-0.011-0.105-0.001-0.105 0.001-0.105-0.009-0.109 0.008-0.109-0.002-0.109-0.004-0.109-0.004-0.109 0.005-0.109 0.001-0.109 0.006-0.109-0.007-0.109 0.011-0.109-0.006-0.109 0.002-0.109 0.008-0.109 0-0.109 0.009-0.109 0.007h-0.109l-0.109 0.008-0.109 0.003-0.108 0.011-0.109 0.008-0.109 0.011-0.109 0.009-0.112 0.005 0.001 0.11-0.007 0.107 0.001 0.086-0.046-0.025-0.098-0.045-0.101-0.038-0.1-0.040-0.102-0.035-0.105-0.026-0.106-0.021-0.105-0.024-0.107-0.013-0.107-0.009-0.106 0.005-0.104 0.018-0.102 0.026-0.098 0.040-0.092 0.051-0.082 0.068-0.069 0.080-0.055 0.091-0.045 0.096-0.029 0.102-0.019 0.105-0.007 0.106 0.008 0.106 0.012 0.106 0.018 0.105 0.035 0.101 0.030 0.102 0.037 0.1 0.049 0.095 0.043 0.098 0.060 0.088 0.054 0.092 0.056 0.091 0.063 0.086 0.066 0.084 0.065 0.084 0.072 0.078 0.070 0.080 0.074 0.077 0.075 0.076 0.082 0.068 0.079 0.071 0.081 0.069 0.086 0.063 0.090 0.056 0.086 0.062 0.091 0.054 0.094 0.049 0.098 0.042 0.096 0.045 0.099 0.039 0.102 0.029 0.103 0.023 0.105 0.017 0.106 0.005 0.106 0.005h0.010l0.034 0.079 0.037 0.101 0.041 0.1 0.048 0.096 0.074 0.077 0.077 0.075 0.098 0.044 0.101 0.032 0.108 0.018 0.107 0.023 0.109 0.012 0.108 0.016 0.108 0.018 0.109 0.005 0.109 0.007 0.109 0.006 0.109 0.003 0.109 0.003 0.109 0.002 0.109-0.003 0.109-0.010 0.109-0.003 0.108-0.011 0.109-0.012 0.108-0.017 0.108-0.013 0.107-0.019 0.108-0.019 0.107-0.022 0.093-0.034 0.087-0.046 0.079-0.059 0.071-0.070 0.047-0.088 0.045-0.088 0.029-0.104 0.038-0.101 0.038-0.101 0.042-0.1 0.027-0.105 0.035-0.102 0.032-0.103 0.038-0.101 0.027-0.105 0.031-0.104 0.031-0.104 0.030-0.104 0.024-0.106 0.033-0.103 0.025-0.105 0.033-0.103 0.022-0.106 0.026-0.105 0.021-0.106 0.027-0.105 0.022-0.106 0.015-0.107 0.013-0.108 0.027-0.105 0.016-0.107 0.019-0.106 0.009-0.108 0.015-0.107 0.016-0.107 0.005-0.108 0.010-0.108 0.009-0.11zM14.879 19.002l-0.103-0.026-0.102-0.029-0.099-0.039-0.098-0.040-0.094-0.049-0.096-0.044-0.091-0.055-0.089-0.057-0.090-0.056-0.084-0.065-0.080-0.070-0.081-0.069-0.069-0.081-0.071-0.080-0.064-0.085-0.062-0.087-0.052-0.093-0.051-0.094-0.046-0.098-0.039-0.101-0.033-0.103-0.023-0.106 0-0.108 0.010-0.107 0.041-0.099 0.070-0.082 0.096-0.047 0.103-0.030 0.107-0.006 0.107 0.008 0.105 0.020 0.104 0.027 0.102 0.033 0.099 0.042 0.099 0.041 0.095 0.051 0.095 0.052 0.089 0.060 0.027 0.019 0.010 0.073 0.011 0.106 0.017 0.105 0.009 0.106 0.022 0.105 0.016 0.105 0.030 0.103 0.020 0.105 0.015 0.106 0.030 0.102 0.028 0.103 0.026 0.103 0.033 0.103 0.026 0.106 0.030 0.104 0.035 0.103 0.017 0.045-0.006-0.002z"></path>
<path fill="#fff" style="fill: var(--color1, #fff)" d="M18.874 17.092l-0.015 0.106-0.014 0.104-0.022 0.103-0.015 0.103-0.014 0.104-0.023 0.102-0.023 0.102-0.020 0.103-0.018 0.088-0.003 0.015-0.031 0.101-0.019 0.104-0.028 0.102-0.026 0.102-0.032 0.101-0.024 0.103-0.035 0.1-0.031 0.101-0.028 0.102-0.032 0.1-0.028 0.102-0.034 0.1-0.039 0.098-0.028 0.102-0.039 0.098-0.035 0.1-0.044 0.094-0.057 0.087-0.081 0.065-0.089 0.053-0.096 0.039-0.104 0.018-0.103 0.027-0.105 0.016-0.105 0.009-0.105 0.014-0.105 0.010-0.105 0.013-0.106-0.001-0.105 0.008-0.106-0.002-0.105-0.001-0.106-0.002-0.105-0.011-0.106-0.004-0.105-0.010-0.105-0.015-0.104-0.019-0.105-0.014-0.103-0.024-0.11-0.034-0.097-0.064-0.086-0.079-0.054-0.104-0.047-0.102-0.038-0.105-0.045-0.103-0.035-0.107-0.036-0.106-0.077-0.211-0.032-0.107-0.031-0.108-0.038-0.106-0.033-0.108-0.027-0.101-0.021-0.103-0.025-0.101-0.027-0.101-0.016-0.103-0.002-0.009-0.020-0.097-0.014-0.107-0.022-0.106-0.012-0.108-0.007-0.108-0.013-0.107-0.011-0.108-0.005-0.108-0.001-0.106 0.041-0.003 0.067-0.006 0.111-0.003 0.031-0.001 0.080-0.003 0.111-0.006 0.111-0.004 0.111-0.004 0.111-0.002 0.072 0.002 0.039 0.001 0.026-0.002 0.085-0.008 0.103-0.002h0.008l0.106 0.003 0.106-0.002 0.106-0.007 0.106 0.001 0.107 0.001 0.105-0.002 0.047 0.002 0.059 0.002h0.041l0.065-0 0.063 0.002 0.043 0.002 0.078-0.003 0.028-0.001 0.068 0.002 0.039 0.001 0.045 0 0.061 0.001 0.108 0.003 0.022 0 0.012 0 0.074 0.001 0.048 0.003 0.060 0.004 0.108-0.003 0.006 0.001 0.101 0.009 0.108-0.004 0.016 0.001 0.092 0.007h0.108l0.108 0.005 0.030 0.003 0.077 0.008 0.108 0.002 0.108 0.006 0.041 0h0.068l0.002 0 0.105 0.011 0.099 0.002z"></path>
<path fill="#fff" style="fill: var(--color1, #fff)" d="M18.874 17.092l-0.015 0.106-0.014 0.104-0.022 0.103-0.015 0.103-0.014 0.104-0.023 0.102-0.023 0.102-0.020 0.103-0.018 0.088-0.047-0.010-0.101-0.023-0.102-0.019-0.103-0.009-0.104-0.002-0.103 0.013-0.108 0.027-0.106 0.035-0.11 0.021-0.111 0.012-0.111-0.006-0.112-0.009-0.108-0.028-0.109-0.023-0.11-0.015-0.111-0.009-0.111-0.008-0.111 0.002-0.111 0.012-0.11 0.015-0.111 0.011-0.11 0.013-0.117 0.003-0.117-0.007-0.113-0.034-0.115-0.025-0.117-0.011-0.117-0.001-0.117 0.001-0.108 0.004-0.107 0.008-0.107 0.014-0.105 0.024-0.104 0.026-0.072 0.019-0.020-0.097-0.014-0.107-0.022-0.106-0.012-0.108-0.007-0.108-0.013-0.107-0.011-0.108-0.005-0.108-0.001-0.106 0.041-0.003 0.037-0 0.094-0.007 0.019-0.002 0.114-0.002 0.114-0.004 0.114-0.005 0.113-0.004 0.114-0.001 0.087-0.003 0.027-0.001 0.114-0.002 0.112-0.008h0.002l0.109-0.001 0.109 0.003 0.109-0.004 0.109-0.002 0.109 0 0.109-0.001 0.038 0 0.071 0.001 0.029 0.001 0.080 0.004 0.049-0.002 0.060-0.003 0.061 0.001 0.047 0.001h0.048l0.061-0 0.023 0.002 0.086 0.006 0.105-0.002h0.006l0.007 0 0.104 0.004h0.018l0.093 0 0.065 0.001 0.016 0 0.029 0 0.111 0.009 0.111-0.003 0.111 0.004 0.11 0.008 0.221 0.009 0.11 0.005 0.095 0.007 0.016 0.001 0.111-0.001 0.11 0.012 0.038 0.001z"></path>
</symbol>
<symbol id="good" viewBox="0 0 32 32">
<path fill="#fff" style="fill: var(--color1, #fff)" d="M-3.2-3.2h38.4v38.4h-38.4v-38.4z"></path>
<path fill="#e65757" style="fill: var(--color9, #e65757)" d="M19.086 14.116l-0.105-0.004-0.104-0.008-0.105-0.005-0.105-0.003-0.105-0.003-0.105-0.008-0.105-0.009-0.105-0.001-0.105 0.002-0.105-0.008-0.21-0.015-0.105 0.002-0.105-0.002h-0.105l-0.105-0.011-0.105-0.001-0.105 0.001-0.105-0.009-0.109 0.008-0.109-0.002-0.109-0.005-0.109-0.004-0.109 0.005-0.109 0.001-0.109 0.007-0.109-0.007-0.109 0.011-0.109-0.006-0.109 0.002-0.109 0.008-0.109 0-0.109 0.009-0.109 0.007h-0.109l-0.109 0.008-0.109 0.003-0.108 0.011-0.109 0.008-0.109 0.011-0.109 0.009-0.112 0.005 0.001 0.11-0.007 0.106 0.001 0.086-0.046-0.024-0.098-0.046-0.101-0.038-0.1-0.039-0.102-0.036-0.105-0.026-0.106-0.021-0.105-0.024-0.107-0.013-0.107-0.009-0.106 0.005-0.104 0.018-0.102 0.026-0.098 0.040-0.092 0.051-0.082 0.068-0.069 0.080-0.055 0.091-0.045 0.096-0.029 0.103-0.019 0.105-0.007 0.107 0.008 0.106 0.012 0.106 0.018 0.105 0.035 0.101 0.030 0.102 0.037 0.1 0.049 0.095 0.043 0.098 0.060 0.089 0.054 0.092 0.056 0.090 0.063 0.086 0.066 0.084 0.065 0.084 0.072 0.079 0.070 0.080 0.074 0.077 0.075 0.076 0.082 0.067 0.079 0.072 0.081 0.068 0.086 0.063 0.090 0.056 0.086 0.062 0.091 0.054 0.094 0.050 0.098 0.042 0.096 0.045 0.099 0.039 0.102 0.029 0.103 0.023 0.105 0.017 0.106 0.005 0.106 0.005h0.010l0.034 0.079 0.037 0.102 0.041 0.1 0.048 0.096 0.074 0.077 0.077 0.075 0.098 0.043 0.101 0.032 0.108 0.017 0.107 0.023 0.109 0.012 0.108 0.016 0.108 0.017 0.109 0.005 0.109 0.007 0.109 0.006 0.109 0.003 0.109 0.003 0.109 0.002 0.109-0.003 0.109-0.010 0.109-0.003 0.217-0.023 0.108-0.017 0.108-0.013 0.107-0.019 0.108-0.019 0.107-0.021 0.093-0.034 0.087-0.046 0.079-0.060 0.071-0.070 0.047-0.088 0.045-0.088 0.029-0.104 0.038-0.101 0.038-0.101 0.042-0.1 0.027-0.105 0.035-0.102 0.032-0.103 0.038-0.101 0.027-0.105 0.031-0.104 0.031-0.103 0.030-0.104 0.024-0.106 0.033-0.103 0.025-0.105 0.033-0.103 0.022-0.106 0.026-0.105 0.021-0.106 0.027-0.105 0.022-0.106 0.015-0.107 0.013-0.107 0.027-0.105 0.016-0.107 0.019-0.106 0.009-0.108 0.015-0.107 0.016-0.107 0.005-0.108 0.010-0.108 0.009-0.11zM14.879 16.666l-0.103-0.026-0.102-0.029-0.099-0.039-0.098-0.040-0.094-0.049-0.096-0.044-0.091-0.055-0.089-0.057-0.090-0.056-0.084-0.065-0.080-0.071-0.081-0.069-0.069-0.081-0.071-0.079-0.064-0.085-0.062-0.087-0.052-0.093-0.051-0.094-0.046-0.098-0.039-0.101-0.033-0.103-0.023-0.106 0-0.109 0.010-0.107 0.041-0.099 0.070-0.082 0.096-0.048 0.103-0.030 0.107-0.007 0.107 0.008 0.105 0.020 0.104 0.028 0.102 0.033 0.099 0.042 0.099 0.041 0.095 0.051 0.095 0.052 0.089 0.061 0.027 0.019 0.010 0.073 0.011 0.106 0.017 0.105 0.009 0.107 0.022 0.104 0.016 0.106 0.030 0.103 0.020 0.105 0.015 0.106 0.030 0.103 0.028 0.103 0.026 0.104 0.033 0.103 0.026 0.105 0.030 0.104 0.035 0.103 0.017 0.045-0.006-0.002z"></path>
<path fill="#fff" style="fill: var(--color1, #fff)" d="M18.874 14.756l-0.015 0.106-0.014 0.104-0.022 0.103-0.015 0.104-0.014 0.104-0.023 0.102-0.023 0.102-0.020 0.103-0.018 0.088-0.003 0.015-0.031 0.101-0.019 0.104-0.028 0.102-0.026 0.102-0.032 0.101-0.024 0.103-0.035 0.1-0.031 0.101-0.028 0.102-0.032 0.1-0.028 0.102-0.034 0.1-0.039 0.098-0.028 0.102-0.039 0.098-0.035 0.099-0.044 0.094-0.057 0.087-0.081 0.065-0.089 0.053-0.096 0.039-0.104 0.018-0.103 0.027-0.105 0.016-0.105 0.009-0.105 0.015-0.105 0.010-0.105 0.013-0.106-0.001-0.105 0.008-0.106-0.002-0.105-0.001-0.106-0.002-0.105-0.011-0.106-0.004-0.105-0.010-0.105-0.015-0.104-0.019-0.105-0.014-0.103-0.024-0.11-0.034-0.097-0.064-0.086-0.079-0.054-0.104-0.047-0.102-0.038-0.105-0.045-0.103-0.035-0.107-0.036-0.106-0.039-0.106-0.039-0.105-0.032-0.107-0.031-0.108-0.038-0.106-0.033-0.107-0.027-0.101-0.021-0.103-0.025-0.101-0.027-0.101-0.016-0.103-0.002-0.009-0.020-0.097-0.014-0.108-0.022-0.106-0.012-0.108-0.007-0.108-0.013-0.108-0.011-0.108-0.005-0.108-0.001-0.106 0.041-0.003 0.067-0.006 0.111-0.003 0.031-0.001 0.080-0.003 0.111-0.006 0.111-0.004 0.111-0.004 0.111-0.002 0.111 0.003 0.026-0.003 0.085-0.007 0.103-0.002 0.008-0 0.106 0.003 0.106-0.002 0.106-0.007 0.106 0.001 0.107 0.001 0.105-0.002 0.047 0.002 0.059 0.002 0.041-0 0.065-0 0.063 0.002 0.043 0.001 0.106-0.004 0.106 0.003 0.045 0.001 0.061 0 0.108 0.003h0.022l0.012 0 0.074 0.001 0.048 0.003 0.060 0.004 0.108-0.003 0.006 0.001 0.101 0.009 0.108-0.004 0.016 0.001 0.092 0.007 0.108 0 0.108 0.005 0.030 0.003 0.077 0.008 0.108 0.002 0.108 0.007h0.041l0.068 0 0.002 0 0.105 0.011 0.099 0.002z"></path>
<path fill="#fff" style="fill: var(--color1, #fff)" d="M18.874 14.756l-0.015 0.106-0.014 0.104-0.022 0.103-0.015 0.104-0.014 0.104-0.023 0.102-0.023 0.102-0.020 0.103-0.018 0.088-0.047-0.010-0.101-0.023-0.102-0.019-0.103-0.009-0.104-0.002-0.103 0.013-0.108 0.026-0.106 0.035-0.11 0.021-0.111 0.012-0.111-0.006-0.112-0.009-0.108-0.028-0.109-0.023-0.11-0.015-0.111-0.009-0.111-0.008-0.111 0.002-0.111 0.012-0.11 0.015-0.111 0.011-0.11 0.013-0.117 0.003-0.117-0.007-0.113-0.034-0.115-0.024-0.117-0.011-0.117-0.002-0.117 0.001-0.108 0.004-0.107 0.008-0.107 0.014-0.105 0.024-0.104 0.026-0.072 0.018-0.020-0.097-0.014-0.108-0.022-0.106-0.012-0.108-0.007-0.108-0.013-0.108-0.011-0.108-0.005-0.108-0.001-0.106 0.041-0.003 0.037-0 0.094-0.007 0.019-0.002 0.059-0.001 0.055-0.001 0.114-0.004 0.114-0.005 0.113-0.004 0.114-0.001 0.087-0.003 0.065-0.002 0.076-0.001 0.112-0.008 0.002-0 0.109-0.001 0.109 0.003 0.109-0.004 0.109-0.002 0.109 0 0.109-0.001 0.038 0.001 0.071 0.001 0.029 0.001 0.080 0.004 0.049-0.002 0.060-0.003 0.109 0.002h0.109l0.023 0.002 0.086 0.006 0.105-0.002h0.006l0.007 0 0.104 0.004h0.111l0.065 0.001 0.016 0 0.029 0 0.111 0.009 0.111-0.003 0.111 0.004 0.051 0.004 0.060 0.004 0.221 0.009 0.11 0.006 0.111 0.007 0.054-0 0.057-0.001 0.11 0.012 0.038 0.001z"></path>
</symbol>
<symbol id="meh" viewBox="0 0 32 32">
<path fill="#fff" style="fill: var(--color1, #fff)" d="M-3.2-3.2h38.4v38.4h-38.4v-38.4z"></path>
<path fill="#a6a6a6" style="fill: var(--color10, #a6a6a6)" d="M17.849 16.457c-0.005 0.199-0.161 0.376-0.351 0.437-0.16 0.052-0.337 0.030-0.492-0.039-0.024 0.055-0.071 0.1-0.129 0.117-0.075 0.022-0.162-0.006-0.213-0.064-0.069 0.073-0.157 0.129-0.25 0.167-0.141 0.058-0.295 0.078-0.447 0.090-0.143 0.010-0.29 0.012-0.424-0.038-0.105-0.040-0.201-0.118-0.245-0.219-0.057 0.066-0.154 0.099-0.238 0.074-0.081-0.024-0.143-0.1-0.157-0.183-0.043 0.033-0.089 0.062-0.138 0.085-0.11 0.051-0.239 0.069-0.353 0.030s-0.209-0.143-0.219-0.263c-0.008-0.101 0.043-0.198 0.106-0.278 0.115-0.146 0.276-0.255 0.455-0.309-0.046-0.019-0.086-0.053-0.111-0.096-0.046-0.079-0.044-0.179-0.009-0.263s0.099-0.153 0.173-0.207c0.185-0.136 0.434-0.182 0.656-0.124-0.008-0.068 0.006-0.138 0.037-0.2 0.046-0.093 0.126-0.165 0.217-0.215 0.217-0.119 0.499-0.108 0.706 0.029 0.175 0.116 0.289 0.318 0.304 0.526 0.062-0.015 0.129-0.008 0.185 0.023 0.078 0.044 0.129 0.133 0.128 0.222 0.079-0.074 0.213-0.083 0.301-0.018 0.072 0.053 0.105 0.149 0.088 0.236 0.096 0.020 0.187 0.063 0.26 0.128 0.1 0.089 0.164 0.22 0.161 0.354z"></path>
<path fill="#a6a6a6" style="fill: var(--color10, #a6a6a6)" d="M17.747 16.138c-0.077-0.089-0.185-0.147-0.299-0.174 0.013-0.101-0.034-0.209-0.128-0.256-0.083-0.042-0.188-0.034-0.264 0.018-0.008-0.067-0.040-0.13-0.092-0.174-0.061-0.052-0.143-0.070-0.221-0.057-0.023-0.241-0.173-0.466-0.395-0.568-0.228-0.105-0.513-0.084-0.716 0.068-0.114 0.085-0.194 0.214-0.189 0.358-0.175-0.039-0.362-0.018-0.523 0.059-0.163 0.077-0.33 0.226-0.33 0.419 0 0.094 0.043 0.182 0.123 0.229-0.099 0.034-0.192 0.084-0.275 0.149-0.092 0.073-0.179 0.165-0.228 0.272-0.049 0.105-0.048 0.224 0.022 0.319 0.067 0.091 0.172 0.141 0.283 0.148 0.136 0.008 0.266-0.045 0.375-0.122 0.023 0.080 0.086 0.149 0.168 0.171s0.171-0.005 0.233-0.061c0.039 0.073 0.102 0.131 0.174 0.172 0.088 0.050 0.19 0.070 0.291 0.076 0.109 0.006 0.22-0.003 0.328-0.015 0.106-0.012 0.212-0.033 0.312-0.071 0.099-0.037 0.191-0.092 0.266-0.166 0.051 0.047 0.122 0.070 0.191 0.060s0.128-0.056 0.162-0.116c0.147 0.060 0.313 0.082 0.468 0.038 0.131-0.037 0.247-0.124 0.318-0.24 0.040-0.065 0.064-0.14 0.066-0.216 0.002-0.117-0.043-0.23-0.12-0.319zM17.664 16.784c-0.109 0.091-0.248 0.13-0.389 0.122-0.089-0.005-0.176-0.028-0.258-0.064-0.010-0.004-0.023-0.001-0.028 0.009-0.026 0.058-0.078 0.104-0.142 0.112s-0.127-0.020-0.17-0.066c-0.008-0.009-0.022-0.004-0.029 0.003-0.139 0.146-0.336 0.208-0.531 0.234-0.101 0.014-0.203 0.022-0.304 0.021s-0.205-0.014-0.297-0.058c-0.087-0.041-0.163-0.109-0.203-0.198-0.006-0.012-0.025-0.008-0.032 0-0.053 0.060-0.139 0.090-0.217 0.067s-0.132-0.096-0.146-0.173c-0.002-0.013-0.021-0.013-0.030-0.007-0.095 0.072-0.207 0.127-0.328 0.131-0.107 0.004-0.211-0.033-0.283-0.114-0.072-0.083-0.086-0.192-0.046-0.293s0.119-0.191 0.202-0.261c0.093-0.079 0.203-0.138 0.32-0.174 0.011-0.003 0.024-0.020 0.008-0.027-0.084-0.036-0.133-0.115-0.137-0.205s0.032-0.174 0.088-0.242c0.111-0.133 0.283-0.212 0.453-0.234 0.096-0.013 0.195-0.006 0.289 0.018 0.012 0.003 0.026-0.005 0.025-0.018-0.027-0.266 0.241-0.442 0.475-0.473 0.237-0.031 0.478 0.068 0.62 0.261 0.077 0.105 0.123 0.23 0.132 0.359 0.001 0.009 0.014 0.012 0.021 0.011 0.074-0.018 0.153-0.002 0.21 0.049 0.051 0.045 0.081 0.113 0.081 0.181 0 0.015 0.020 0.020 0.030 0.011 0.067-0.061 0.172-0.075 0.252-0.032 0.085 0.045 0.123 0.148 0.107 0.239-0.001 0.007 0.006 0.013 0.012 0.015 0.112 0.024 0.217 0.079 0.293 0.165 0.073 0.082 0.118 0.191 0.116 0.302-0.004 0.128-0.070 0.245-0.167 0.327z"></path>
</symbol>
<symbol id="neutral-meh" viewBox="0 0 32 32">
<path fill="#fff" style="fill: var(--color1, #fff)" d="M-3.2-3.2h38.4v38.4h-38.4v-38.4z"></path>
<path fill="#a6a6a6" style="fill: var(--color10, #a6a6a6)" d="M19.098 16.479l-0.105-0.004-0.105-0.008-0.105-0.005-0.105-0.003-0.105-0.003-0.105-0.008-0.105-0.009-0.105-0.001-0.105 0.002-0.105-0.008-0.105-0.008-0.105-0.007-0.105 0.002-0.105-0.002h-0.105l-0.105-0.011-0.105-0.001-0.105 0.001-0.105-0.009-0.109 0.008-0.109-0.002-0.109-0.004-0.109-0.004-0.109 0.005-0.109 0.001-0.109 0.006-0.109-0.007-0.109 0.011-0.109-0.006-0.109 0.002-0.109 0.008-0.109 0-0.109 0.009-0.109 0.007-0.109 0-0.109 0.007-0.109 0.003-0.108 0.011-0.109 0.007-0.108 0.011-0.109 0.009-0.112 0.005 0.001 0.108-0.007 0.105 0.001 0.084-0.046-0.024-0.098-0.045-0.101-0.038-0.1-0.039-0.102-0.035-0.105-0.025-0.106-0.021-0.105-0.023-0.107-0.012-0.107-0.009-0.106 0.005-0.104 0.018-0.102 0.025-0.098 0.039-0.092 0.050-0.082 0.066-0.069 0.079-0.055 0.089-0.045 0.094-0.029 0.101-0.019 0.103-0.007 0.105 0.008 0.105 0.012 0.104 0.018 0.103 0.035 0.099 0.030 0.1 0.037 0.098 0.049 0.094 0.043 0.096 0.060 0.087 0.054 0.090 0.057 0.089 0.063 0.085 0.066 0.083 0.065 0.083 0.072 0.077 0.070 0.079 0.074 0.076 0.075 0.075 0.082 0.066 0.079 0.070 0.082 0.068 0.085 0.062 0.090 0.055 0.086 0.061 0.091 0.053 0.094 0.049 0.098 0.042 0.096 0.044 0.099 0.038 0.102 0.028 0.103 0.023 0.105 0.017 0.106 0.005 0.106 0.005h0.010l0.034 0.077 0.037 0.1 0.041 0.099 0.048 0.094 0.075 0.076 0.077 0.074 0.098 0.043 0.101 0.031 0.108 0.017 0.107 0.023 0.109 0.012 0.108 0.015 0.108 0.017 0.109 0.005 0.109 0.007 0.109 0.006 0.109 0.003 0.109 0.003 0.109 0.002 0.109-0.003 0.109-0.010 0.109-0.003 0.109-0.011 0.108-0.012 0.108-0.017 0.108-0.012 0.108-0.019 0.108-0.018 0.107-0.021 0.093-0.034 0.088-0.045 0.079-0.059 0.071-0.069 0.047-0.086 0.045-0.087 0.029-0.103 0.038-0.1 0.038-0.099 0.042-0.098 0.027-0.103 0.035-0.101 0.032-0.101 0.038-0.1 0.027-0.103 0.030-0.102 0.032-0.102 0.029-0.102 0.024-0.104 0.033-0.101 0.025-0.104 0.033-0.101 0.022-0.104 0.026-0.103 0.021-0.104 0.027-0.103 0.022-0.105 0.015-0.105 0.013-0.106 0.027-0.103 0.016-0.106 0.019-0.105 0.009-0.106 0.015-0.105 0.016-0.105 0.005-0.106 0.010-0.106 0.009-0.108zM14.891 18.988l-0.103-0.025-0.102-0.029-0.099-0.038-0.098-0.039-0.094-0.049-0.096-0.044-0.091-0.054-0.089-0.056-0.090-0.055-0.084-0.064-0.080-0.069-0.081-0.068-0.069-0.080-0.071-0.078-0.064-0.084-0.062-0.085-0.052-0.092-0.051-0.092-0.046-0.097-0.039-0.099-0.033-0.102-0.023-0.105 0-0.107 0.011-0.105 0.041-0.098 0.070-0.081 0.096-0.047 0.103-0.029 0.107-0.006 0.107 0.008 0.105 0.020 0.104 0.027 0.102 0.033 0.198 0.081 0.095 0.050 0.095 0.051 0.089 0.060 0.027 0.019 0.010 0.072 0.011 0.104 0.017 0.104 0.009 0.105 0.022 0.103 0.016 0.104 0.030 0.101 0.020 0.103 0.015 0.104 0.030 0.101 0.028 0.101 0.026 0.102 0.033 0.102 0.026 0.104 0.030 0.102 0.035 0.101 0.017 0.044-0.006-0.002z"></path>
<path fill="#510303" style="fill: var(--color3, #510303)" d="M18.886 17.109l-0.015 0.104-0.014 0.102-0.022 0.101-0.015 0.102-0.014 0.102-0.023 0.1-0.022 0.101-0.020 0.101-0.018 0.086-0.003 0.014-0.032 0.099-0.019 0.103-0.028 0.1-0.026 0.101-0.032 0.099-0.024 0.101-0.035 0.098-0.031 0.1-0.028 0.1-0.032 0.099-0.028 0.1-0.034 0.098-0.039 0.097-0.028 0.1-0.039 0.097-0.035 0.098-0.044 0.092-0.058 0.086-0.081 0.064-0.089 0.052-0.096 0.039-0.104 0.018-0.102 0.026-0.105 0.016-0.106 0.009-0.104 0.014-0.105 0.010-0.105 0.013-0.106-0.001-0.106 0.008-0.106-0.002-0.106-0.001-0.106-0.002-0.105-0.010-0.106-0.004-0.105-0.010-0.105-0.015-0.104-0.019-0.105-0.014-0.103-0.024-0.111-0.034-0.097-0.063-0.086-0.078-0.054-0.102-0.047-0.1-0.038-0.104-0.045-0.101-0.035-0.105-0.036-0.105-0.077-0.207-0.033-0.106-0.031-0.106-0.038-0.104-0.033-0.106-0.027-0.099-0.021-0.101-0.025-0.1-0.027-0.099-0.016-0.102-0.002-0.009-0.020-0.096-0.014-0.106-0.022-0.105-0.012-0.106-0.007-0.106-0.013-0.106-0.010-0.106-0.005-0.106-0.001-0.104 0.041-0.003 0.067-0.006 0.064-0.002 0.047-0.001 0.031-0.001 0.080-0.003 0.111-0.006 0.111-0.004 0.111-0.004 0.111-0.002 0.072 0.001 0.039 0.001 0.026-0.002 0.084-0.007 0.103-0.002 0.008-0 0.106 0.003 0.106-0.002 0.106-0.007 0.106 0.001 0.107 0.001 0.105-0.002 0.047 0.002 0.060 0.002 0.041-0h0.065l0.106 0.003 0.106-0.004 0.106 0.003 0.045 0.001 0.061 0 0.108 0.003 0.022 0 0.013 0 0.074 0.001 0.048 0.003 0.060 0.004 0.108-0.003 0.006 0.001 0.102 0.009 0.029-0.001 0.079-0.002 0.016 0.001 0.092 0.007h0.108l0.108 0.005 0.030 0.003 0.077 0.008 0.108 0.002 0.108 0.006 0.041 0h0.068l0.002 0 0.105 0.011 0.099 0.002z"></path>
<path fill="#fff" style="fill: var(--color1, #fff)" d="M18.886 17.109l-0.015 0.104-0.014 0.102-0.022 0.101-0.015 0.102-0.014 0.102-0.023 0.1-0.022 0.101-0.020 0.101-0.018 0.086-0.047-0.010-0.101-0.023-0.102-0.018-0.103-0.009-0.104-0.002-0.103 0.013-0.108 0.026-0.106 0.034-0.11 0.021-0.111 0.012-0.111-0.006-0.111-0.009-0.108-0.028-0.109-0.023-0.11-0.015-0.111-0.009-0.111-0.008-0.111 0.002-0.111 0.012-0.11 0.015-0.111 0.011-0.11 0.013-0.117 0.003-0.117-0.007-0.112-0.033-0.115-0.024-0.117-0.011-0.117-0.001-0.117 0.001-0.107 0.005-0.107 0.008-0.107 0.014-0.105 0.024-0.104 0.025-0.072 0.018-0.020-0.096-0.014-0.106-0.022-0.105-0.012-0.106-0.007-0.106-0.013-0.106-0.010-0.106-0.005-0.106-0.001-0.104 0.041-0.003 0.037-0 0.094-0.007 0.019-0.001 0.114-0.002 0.114-0.004 0.113-0.005 0.114-0.004 0.114-0.001 0.087-0.003 0.027-0.001 0.114-0.002 0.112-0.008 0.002-0 0.109-0.001 0.109 0.003 0.109-0.003 0.109-0.002 0.093 0.001h0.016l0.109-0.001 0.037 0.001 0.072 0.001 0.029 0.001 0.080 0.004 0.049-0.002 0.060-0.003 0.061 0.001 0.048 0.001 0.048-0h0.061l0.023 0.002 0.086 0.006 0.105-0.002h0.006l0.007 0 0.104 0.004h0.018l0.093 0 0.065 0.001 0.016 0 0.029 0 0.11 0.008 0.111-0.003 0.111 0.004 0.051 0.003 0.060 0.004 0.111 0.004 0.111 0.004 0.11 0.006 0.111 0.007 0.111-0.001 0.11 0.012 0.037 0.001z"></path>
<path fill="#a6a6a6" style="fill: var(--color10, #a6a6a6)" d="M18.333 13.315c-0.005 0.199-0.161 0.375-0.351 0.436-0.16 0.052-0.337 0.030-0.492-0.039-0.024 0.055-0.071 0.1-0.129 0.117-0.075 0.022-0.162-0.006-0.214-0.064-0.069 0.073-0.156 0.129-0.25 0.167-0.141 0.058-0.295 0.078-0.447 0.090-0.143 0.010-0.29 0.012-0.424-0.038-0.105-0.040-0.201-0.118-0.246-0.219-0.057 0.066-0.153 0.099-0.238 0.074-0.081-0.024-0.143-0.1-0.157-0.183-0.043 0.033-0.089 0.062-0.138 0.085-0.11 0.051-0.239 0.069-0.353 0.030s-0.209-0.143-0.218-0.264c-0.008-0.101 0.043-0.198 0.105-0.278 0.115-0.146 0.277-0.255 0.455-0.308-0.046-0.019-0.086-0.054-0.111-0.097-0.046-0.079-0.044-0.179-0.009-0.263s0.099-0.153 0.173-0.207c0.185-0.137 0.434-0.182 0.656-0.124-0.008-0.068 0.006-0.138 0.037-0.2 0.046-0.093 0.126-0.165 0.217-0.215 0.217-0.119 0.5-0.107 0.706 0.029 0.175 0.116 0.289 0.317 0.304 0.526 0.062-0.016 0.129-0.008 0.185 0.023 0.078 0.044 0.129 0.133 0.127 0.222 0.080-0.074 0.214-0.083 0.301-0.018 0.071 0.053 0.105 0.149 0.088 0.236 0.096 0.020 0.187 0.063 0.26 0.128 0.1 0.089 0.164 0.22 0.161 0.354z"></path>
<path fill="#a6a6a6" style="fill: var(--color10, #a6a6a6)" d="M18.231 12.996c-0.077-0.089-0.185-0.147-0.299-0.174 0.013-0.101-0.034-0.209-0.128-0.256-0.083-0.042-0.188-0.034-0.265 0.018-0.008-0.067-0.040-0.13-0.091-0.174-0.061-0.052-0.143-0.070-0.221-0.057-0.023-0.241-0.173-0.466-0.395-0.568-0.228-0.105-0.514-0.084-0.716 0.068-0.114 0.085-0.194 0.214-0.189 0.358-0.175-0.039-0.362-0.018-0.523 0.059s-0.33 0.226-0.33 0.419c0 0.094 0.043 0.182 0.123 0.23-0.099 0.034-0.192 0.084-0.275 0.149-0.093 0.072-0.179 0.164-0.229 0.272-0.049 0.105-0.048 0.223 0.022 0.319 0.067 0.091 0.172 0.141 0.283 0.148 0.136 0.008 0.266-0.045 0.375-0.122 0.023 0.081 0.086 0.149 0.168 0.171s0.171-0.005 0.233-0.061c0.039 0.073 0.102 0.131 0.174 0.172 0.088 0.050 0.19 0.070 0.291 0.075 0.109 0.006 0.22-0.003 0.328-0.015 0.106-0.012 0.212-0.033 0.312-0.071 0.099-0.037 0.191-0.092 0.266-0.166 0.051 0.047 0.122 0.070 0.191 0.061s0.128-0.056 0.162-0.116c0.147 0.060 0.313 0.082 0.467 0.038 0.132-0.037 0.247-0.124 0.319-0.24 0.040-0.065 0.063-0.14 0.066-0.216 0.002-0.118-0.044-0.23-0.12-0.319zM18.148 13.642c-0.109 0.092-0.248 0.13-0.389 0.122-0.089-0.005-0.176-0.029-0.258-0.064-0.010-0.004-0.023-0.001-0.028 0.009-0.026 0.058-0.078 0.104-0.142 0.112s-0.127-0.019-0.17-0.066c-0.008-0.008-0.023-0.004-0.029 0.003-0.139 0.146-0.336 0.208-0.531 0.234-0.101 0.014-0.203 0.022-0.304 0.021s-0.205-0.014-0.297-0.058c-0.087-0.041-0.163-0.109-0.203-0.198-0.006-0.012-0.025-0.008-0.032 0-0.053 0.060-0.139 0.090-0.217 0.067s-0.132-0.096-0.146-0.173c-0.002-0.013-0.021-0.013-0.030-0.007-0.095 0.072-0.207 0.127-0.328 0.131-0.107 0.004-0.211-0.033-0.283-0.114-0.072-0.083-0.086-0.192-0.046-0.293 0.041-0.102 0.119-0.191 0.202-0.261 0.093-0.079 0.203-0.138 0.32-0.174 0.011-0.003 0.024-0.020 0.008-0.027-0.084-0.036-0.133-0.115-0.137-0.205s0.032-0.174 0.088-0.242c0.111-0.133 0.283-0.212 0.453-0.234 0.096-0.013 0.195-0.006 0.289 0.018 0.012 0.003 0.026-0.005 0.025-0.018-0.027-0.266 0.241-0.442 0.475-0.473 0.237-0.031 0.478 0.068 0.62 0.261 0.077 0.105 0.123 0.23 0.132 0.359 0.001 0.009 0.014 0.012 0.021 0.011 0.074-0.018 0.153-0.002 0.21 0.049 0.051 0.046 0.081 0.113 0.081 0.181 0 0.015 0.020 0.020 0.030 0.011 0.067-0.061 0.172-0.075 0.252-0.032 0.085 0.045 0.123 0.147 0.107 0.239-0.001 0.007 0.005 0.013 0.012 0.014 0.112 0.024 0.217 0.079 0.294 0.165 0.073 0.082 0.118 0.191 0.116 0.302-0.004 0.128-0.070 0.246-0.167 0.327z"></path>
</symbol>
<symbol id="neutral" viewBox="0 0 32 32">
<path fill="#fff" style="fill: var(--color1, #fff)" d="M-3.2-3.2h38.4v38.4h-38.4v-38.4z"></path>
<path fill="#a6a6a6" style="fill: var(--color10, #a6a6a6)" d="M19.098 14.121l-0.105-0.004-0.105-0.008-0.105-0.005-0.105-0.002-0.105-0.003-0.105-0.008-0.105-0.008-0.105-0.001-0.105 0.002-0.105-0.008-0.105-0.008-0.105-0.007-0.105 0.002-0.105-0.002h-0.105l-0.105-0.011-0.105-0-0.105 0-0.105-0.008-0.109 0.008-0.109-0.002-0.109-0.004-0.109-0.004-0.109 0.005-0.109 0-0.109 0.007-0.109-0.007-0.109 0.011-0.109-0.006-0.109 0.002-0.109 0.008-0.109 0-0.109 0.009-0.109 0.007h-0.109l-0.109 0.008-0.109 0.003-0.108 0.011-0.109 0.008-0.108 0.011-0.109 0.009-0.112 0.005 0.001 0.108-0.007 0.105 0.001 0.084-0.046-0.024-0.098-0.045-0.101-0.038-0.1-0.039-0.102-0.035-0.105-0.026-0.106-0.021-0.105-0.023-0.107-0.013-0.107-0.009-0.106 0.005-0.104 0.018-0.102 0.026-0.098 0.039-0.092 0.050-0.082 0.066-0.069 0.079-0.055 0.089-0.045 0.095-0.029 0.101-0.019 0.103-0.007 0.105 0.008 0.104 0.012 0.104 0.018 0.103 0.035 0.099 0.030 0.1 0.037 0.098 0.049 0.094 0.043 0.096 0.060 0.087 0.054 0.090 0.057 0.089 0.063 0.085 0.066 0.082 0.065 0.083 0.072 0.077 0.070 0.079 0.074 0.076 0.075 0.075 0.082 0.066 0.079 0.070 0.082 0.068 0.085 0.062 0.090 0.055 0.086 0.061 0.091 0.053 0.094 0.049 0.098 0.042 0.096 0.044 0.099 0.039 0.102 0.028 0.103 0.023 0.105 0.017 0.106 0.005 0.106 0.004h0.010l0.034 0.078 0.037 0.1 0.041 0.098 0.048 0.095 0.075 0.076 0.077 0.073 0.098 0.043 0.101 0.031 0.108 0.017 0.107 0.023 0.109 0.011 0.108 0.016 0.108 0.017 0.109 0.005 0.109 0.007 0.109 0.006 0.218 0.006 0.109 0.002 0.109-0.003 0.109-0.010 0.109-0.003 0.109-0.011 0.108-0.012 0.108-0.017 0.108-0.012 0.108-0.019 0.108-0.018 0.107-0.021 0.093-0.034 0.088-0.045 0.079-0.059 0.071-0.069 0.047-0.086 0.045-0.087 0.029-0.103 0.038-0.1 0.038-0.099 0.042-0.098 0.027-0.103 0.035-0.101 0.032-0.101 0.038-0.1 0.027-0.103 0.030-0.102 0.032-0.102 0.029-0.102 0.024-0.104 0.033-0.101 0.025-0.104 0.033-0.101 0.022-0.104 0.026-0.103 0.021-0.105 0.027-0.103 0.022-0.104 0.015-0.106 0.013-0.106 0.027-0.103 0.016-0.105 0.019-0.105 0.009-0.106 0.015-0.105 0.016-0.105 0.005-0.106 0.010-0.106 0.009-0.108zM14.891 16.63l-0.103-0.025-0.102-0.029-0.099-0.038-0.098-0.039-0.094-0.048-0.096-0.044-0.091-0.054-0.089-0.056-0.090-0.056-0.084-0.064-0.080-0.069-0.081-0.068-0.069-0.080-0.071-0.078-0.064-0.084-0.062-0.085-0.052-0.092-0.051-0.092-0.046-0.097-0.039-0.1-0.033-0.101-0.023-0.105 0-0.107 0.011-0.105 0.041-0.098 0.070-0.081 0.096-0.047 0.103-0.029 0.107-0.006 0.107 0.008 0.105 0.020 0.104 0.027 0.102 0.032 0.099 0.041 0.099 0.040 0.189 0.101 0.089 0.060 0.027 0.019 0.010 0.072 0.011 0.105 0.017 0.104 0.009 0.105 0.022 0.103 0.016 0.104 0.030 0.101 0.020 0.103 0.015 0.104 0.030 0.101 0.028 0.101 0.026 0.102 0.033 0.102 0.026 0.104 0.030 0.103 0.035 0.101 0.017 0.044-0.006-0.002z"></path>
<path fill="#510303" style="fill: var(--color3, #510303)" d="M18.886 14.751l-0.015 0.104-0.014 0.102-0.022 0.101-0.015 0.102-0.014 0.102-0.023 0.101-0.022 0.101-0.020 0.101-0.018 0.087-0.003 0.014-0.032 0.099-0.019 0.103-0.028 0.1-0.026 0.101-0.032 0.099-0.024 0.101-0.035 0.098-0.031 0.099-0.028 0.1-0.032 0.099-0.028 0.1-0.034 0.098-0.039 0.097-0.028 0.1-0.039 0.097-0.035 0.098-0.044 0.092-0.058 0.086-0.081 0.064-0.089 0.052-0.096 0.039-0.104 0.018-0.102 0.026-0.105 0.016-0.106 0.009-0.104 0.014-0.105 0.010-0.105 0.013-0.106-0.001-0.106 0.008-0.106-0.002-0.106-0.001-0.106-0.002-0.105-0.010-0.106-0.004-0.105-0.010-0.105-0.015-0.104-0.019-0.105-0.014-0.103-0.024-0.111-0.033-0.097-0.063-0.086-0.078-0.054-0.102-0.047-0.1-0.038-0.104-0.045-0.101-0.035-0.105-0.036-0.104-0.077-0.207-0.033-0.106-0.031-0.106-0.038-0.104-0.033-0.106-0.027-0.099-0.021-0.101-0.025-0.1-0.027-0.099-0.016-0.101-0.002-0.009-0.020-0.095-0.014-0.106-0.022-0.105-0.012-0.106-0.007-0.106-0.013-0.106-0.010-0.106-0.005-0.106-0.001-0.104 0.041-0.003 0.067-0.006 0.064-0.002 0.047-0.001 0.031-0.001 0.080-0.003 0.111-0.006 0.111-0.004 0.111-0.004 0.111-0.002 0.072 0.001 0.039 0.001 0.026-0.002 0.084-0.008 0.103-0.001 0.008-0 0.106 0.003 0.106-0.002 0.106-0.007 0.106 0.001 0.107 0.001 0.105-0.002 0.047 0.002 0.060 0.002 0.041-0 0.065-0 0.063 0.002 0.043 0.001 0.106-0.004 0.106 0.003 0.045 0 0.061 0.001 0.108 0.003 0.022 0h0.013l0.074 0.001 0.048 0.003 0.060 0.004 0.098-0.003h0.010l0.006 0 0.102 0.009 0.108-0.004 0.016 0.001 0.092 0.007h0.108l0.108 0.005 0.030 0.003 0.077 0.008 0.108 0.002 0.108 0.006 0.041 0h0.068l0.002 0 0.105 0.011 0.099 0.002z"></path>
<path fill="#fff" style="fill: var(--color1, #fff)" d="M18.886 14.751l-0.015 0.104-0.014 0.102-0.022 0.101-0.015 0.102-0.014 0.102-0.023 0.101-0.022 0.101-0.020 0.101-0.018 0.087-0.047-0.010-0.101-0.023-0.102-0.018-0.103-0.009-0.104-0.002-0.103 0.012-0.108 0.026-0.106 0.034-0.11 0.020-0.111 0.012-0.111-0.006-0.111-0.009-0.108-0.028-0.109-0.023-0.11-0.015-0.111-0.009-0.111-0.008-0.111 0.002-0.111 0.012-0.11 0.015-0.111 0.010-0.11 0.013-0.117 0.003-0.117-0.007-0.112-0.033-0.115-0.024-0.117-0.011-0.117-0.002-0.117 0.001-0.107 0.004-0.107 0.008-0.107 0.014-0.105 0.024-0.104 0.025-0.072 0.018-0.020-0.095-0.014-0.106-0.022-0.105-0.012-0.106-0.007-0.106-0.013-0.106-0.010-0.106-0.005-0.106-0.001-0.104 0.041-0.003 0.037-0 0.094-0.007 0.019-0.001 0.114-0.002 0.114-0.004 0.113-0.005 0.114-0.004 0.114-0.001 0.087-0.003 0.027-0.001 0.114-0.002 0.112-0.008 0.002-0 0.109-0.001 0.109 0.003 0.109-0.004 0.109-0.002 0.109 0 0.109-0.001 0.037 0.001 0.072 0.001 0.029 0.001 0.080 0.004 0.049-0.002 0.060-0.003 0.061 0.001 0.048 0.001h0.048l0.061-0 0.023 0.002 0.086 0.006 0.105-0.002h0.013l0.104 0.004h0.111l0.065 0.001 0.046 0.001 0.11 0.008 0.111-0.003 0.111 0.004 0.051 0.003 0.060 0.004 0.093 0.003 0.018 0.001 0.111 0.004 0.11 0.006 0.111 0.007 0.111-0.001 0.11 0.012 0.037 0.001z"></path>
</symbol>
<symbol id="stinky" viewBox="0 0 32 32">
<path fill="#fff" style="fill: var(--color1, #fff)" d="M-3.2-3.2h38.4v38.4h-38.4v-38.4z"></path>
<path fill="#8dd02b" style="fill: var(--color2, #8dd02b)" d="M16.659 15.878c-0.125-0.044-0.257-0.020-0.385 0.004-0.077 0.015-0.169 0.021-0.217-0.065-0.058-0.103-0.008-0.257 0.059-0.348s0.154-0.161 0.188-0.284c0.037-0.134-0.007-0.292-0.082-0.388s-0.178-0.138-0.278-0.159c-0.301-0.066-0.612 0.028-0.912-0.043-0.055-0.013-0.112-0.034-0.153-0.087s-0.061-0.148-0.029-0.214c-0.094 0.111-0.061 0.342 0.032 0.453s0.222 0.135 0.344 0.153c0.121 0.018 0.25 0.038 0.346 0.144 0.033 0.037 0.062 0.086 0.071 0.144 0.019 0.125-0.058 0.238-0.137 0.299-0.093 0.071-0.199 0.108-0.289 0.186s-0.168 0.22-0.149 0.368c0.015 0.123 0.092 0.214 0.175 0.256s0.172 0.047 0.259 0.063c0.052 0.010 0.114 0.039 0.122 0.112 0.008 0.077-0.052 0.13-0.103 0.16-0.091 0.054-0.185 0.11-0.254 0.209s-0.108 0.257-0.065 0.383c0.037 0.109 0.122 0.166 0.204 0.2 0.096 0.040 0.195 0.060 0.295 0.059 0.106-0.001 0.217-0.023 0.313 0.042 0.203 0.139 0.064 0.401-0.035 0.558-0.126 0.2-0.282 0.298-0.462 0.358 0.179-0.059 0.36-0.119 0.523-0.237s0.31-0.303 0.376-0.547c0.016-0.058 0.027-0.121 0.021-0.182-0.015-0.165-0.139-0.266-0.255-0.289s-0.235 0.005-0.35-0.028c-0.060-0.017-0.126-0.067-0.133-0.153-0.007-0.087 0.050-0.156 0.104-0.199 0.291-0.236 0.646-0.26 0.947-0.471 0.029-0.020 0.058-0.043 0.077-0.079 0.038-0.070 0.029-0.176-0.008-0.247s-0.098-0.111-0.158-0.133z"></path>
<path fill="#8dd02b" style="fill: var(--color2, #8dd02b)" d="M16.513 14.802c-0.004 0.001-0.009 0.001-0.013 0.002 0.004-0.001 0.009-0.002 0.013-0.002z"></path>
<path fill="#8dd02b" style="fill: var(--color2, #8dd02b)" d="M17.328 15.255c-0.051-0.012-0.103-0.013-0.155-0.005-0.046 0.008-0.094 0.026-0.124 0.076-0.028 0.047-0.034 0.114-0.025 0.174s0.029 0.115 0.050 0.169c-0.062-0.086-0.151-0.133-0.238-0.124-0.045 0.004-0.090 0.023-0.135 0.018s-0.094-0.044-0.1-0.108c-0.009-0.083 0.052-0.141 0.088-0.207 0.048-0.088 0.053-0.218 0.012-0.313-0.038-0.090-0.115-0.143-0.188-0.133 0.127-0.017 0.188 0.194 0.109 0.329-0.041 0.070-0.1 0.113-0.148 0.174s-0.084 0.158-0.059 0.241c0.027 0.091 0.108 0.114 0.177 0.123 0.121 0.016 0.246 0.024 0.354 0.101s0.195 0.246 0.169 0.414c-0.010 0.066-0.037 0.125-0.068 0.177-0.036 0.061-0.079 0.114-0.128 0.154-0.236 0.194-0.557 0.059-0.786 0.267-0.019 0.018-0.039 0.039-0.047 0.070-0.010 0.039 0.002 0.085 0.022 0.115s0.049 0.047 0.076 0.062c0.080 0.042 0.167 0.067 0.238 0.138s0.119 0.204 0.083 0.315c0.067-0.12 0.050-0.316-0.035-0.409-0.021-0.023-0.047-0.047-0.046-0.085 0.001-0.016 0.007-0.031 0.014-0.044 0.045-0.085 0.121-0.126 0.195-0.14s0.15-0.006 0.225-0.014c0.095-0.010 0.189-0.045 0.274-0.104 0.117-0.081 0.226-0.229 0.229-0.413 0.001-0.116-0.040-0.225-0.084-0.323s-0.093-0.197-0.108-0.312c-0.015-0.114 0.014-0.251 0.089-0.299 0.023-0.015 0.048-0.020 0.073-0.018 0.057 0.004 0.121 0.075 0.103 0.151 0.031-0.035 0.026-0.108 0-0.15s-0.067-0.058-0.106-0.067z"></path>
<path fill="#8dd02b" style="fill: var(--color2, #8dd02b)" d="M14.624 15.503c0 0.001 0.001 0.002 0.001 0.003-0.001-0.001-0.001-0.002-0.001-0.003z"></path>
<path fill="#8dd02b" style="fill: var(--color2, #8dd02b)" d="M14.625 15.505c0.002 0.005 0.005 0.009 0.008 0.014-0.003-0.004-0.006-0.009-0.008-0.014z"></path>
<path fill="#8dd02b" style="fill: var(--color2, #8dd02b)" d="M14.844 16.094c-0.026-0.096-0.016-0.206 0.011-0.302 0.026-0.095 0.068-0.182 0.121-0.252 0.046-0.060 0.1-0.11 0.134-0.184 0.011-0.023 0.019-0.049 0.017-0.076-0.002-0.040-0.026-0.071-0.050-0.093-0.093-0.087-0.214-0.11-0.319-0.059-0.057 0.027-0.111 0.078-0.14 0.153-0.026 0.069-0.027 0.16 0.005 0.223-0.018-0.038-0.019-0.091-0.005-0.133 0.016-0.049 0.049-0.083 0.084-0.102s0.078-0.024 0.109 0.006c0.039 0.037 0.047 0.117 0.032 0.18s-0.047 0.114-0.076 0.166c-0.066 0.115-0.124 0.246-0.14 0.393s0.018 0.312 0.104 0.396c0.044 0.042 0.097 0.061 0.149 0.072 0.205 0.042 0.417-0.027 0.619 0.035-0.029-0.030-0.373-0.086-0.497-0.192-0.066-0.057-0.131-0.128-0.159-0.23z"></path>
<path fill="#8dd02b" style="fill: var(--color2, #8dd02b)" d="M16.349 15.257c-0.037 0.071-0.080 0.136-0.123 0.2 0.048-0.055 0.091-0.124 0.123-0.2z"></path>
<path fill="#8dd02b" style="fill: var(--color2, #8dd02b)" d="M16.5 13.586c0.037 0.013 0.082 0.059 0.065 0.108-0.005 0.013-0.013 0.023-0.022 0.032-0.222 0.225-0.564 0.088-0.768 0.343-0.045 0.056-0.081 0.139-0.066 0.221 0.011 0.060 0.047 0.105 0.086 0.132 0.087 0.062 0.189 0.054 0.284 0.084 0.128 0.040 0.248 0.158 0.299 0.329 0.043 0.144 0.022 0.294-0.030 0.421 0.028-0.054 0.053-0.111 0.072-0.174 0.044-0.145 0.051-0.32-0.007-0.454-0.086-0.199-0.274-0.244-0.403-0.389-0.021-0.024-0.042-0.056-0.039-0.093 0.003-0.051 0.045-0.075 0.080-0.087 0.14-0.050 0.28-0.101 0.419-0.151 0.045-0.016 0.094-0.036 0.122-0.089 0.024-0.045 0.027-0.111 0.007-0.161s-0.061-0.080-0.101-0.074z"></path>
<path fill="#8dd02b" style="fill: var(--color2, #8dd02b)" d="M14.685 16.584c-0.091-0.068-0.137-0.223-0.138-0.37-0.001-0.188 0.070-0.349 0.056-0.537-0.044 0.16-0.102 0.319-0.127 0.488-0.025 0.172 0 0.375 0.102 0.474 0.089 0.087 0.208 0.068 0.315 0.046 0.148-0.030 0.296-0.061 0.444-0.091-0.141 0.010-0.282 0.021-0.423 0.031-0.078 0.006-0.16 0.010-0.229-0.042z"></path>
<path fill="#8dd02b" style="fill: var(--color2, #8dd02b)" d="M16.567 17.085c0.002 0.007 0.004 0.014 0.008 0.020-0.002-0.007-0.005-0.013-0.008-0.020z"></path>
<path fill="#8dd02b" style="fill: var(--color2, #8dd02b)" d="M17.297 15.934c0.057 0.068 0.112 0.145 0.142 0.242 0.061 0.198-0.002 0.441-0.12 0.577s-0.277 0.18-0.428 0.17c-0.082-0.006-0.166-0.026-0.246-0.001-0.030 0.009-0.085 0.026-0.097 0.073-0.008 0.033 0.007 0.061 0.019 0.090-0.012-0.045 0.009-0.099 0.038-0.121 0.036-0.027 0.080-0.020 0.12-0.012 0.113 0.021 0.227 0.040 0.34 0.027s0.228-0.060 0.317-0.161 0.149-0.26 0.14-0.421c-0.011-0.193-0.115-0.349-0.225-0.463z"></path>
<path fill="#8dd02b" style="fill: var(--color2, #8dd02b)" d="M15.486 15.038c-0.106-0.059-0.22-0.089-0.334-0.089 0.096-0 0.199 0.035 0.278 0.115 0.040 0.041 0.076 0.108 0.066 0.178-0.007 0.050-0.035 0.088-0.064 0.118-0.054 0.054-0.116 0.090-0.175 0.13s-0.119 0.087-0.163 0.157c-0.044 0.070-0.070 0.169-0.053 0.259-0.009-0.082 0.026-0.163 0.072-0.215s0.102-0.081 0.156-0.115c0.078-0.050 0.153-0.113 0.221-0.187 0.029-0.032 0.058-0.066 0.076-0.112s0.024-0.104 0.007-0.15c-0.017-0.046-0.053-0.071-0.087-0.089z"></path>
<path fill="#8dd02b" style="fill: var(--color2, #8dd02b)" d="M15.996 17.631c-0.032-0.029-0.070-0.041-0.107-0.049-0.148-0.032-0.3-0.019-0.449-0.041-0.062-0.009-0.125-0.025-0.179-0.067-0.084-0.065-0.141-0.192-0.147-0.327-0.009-0.213 0.103-0.394 0.224-0.496-0.078 0.048-0.155 0.106-0.215 0.193-0.076 0.112-0.116 0.271-0.107 0.426 0.003 0.052 0.011 0.105 0.031 0.15 0.021 0.049 0.054 0.086 0.088 0.115 0.108 0.092 0.237 0.118 0.363 0.124s0.252-0.008 0.377 0.012c0.038 0.006 0.081 0.020 0.101 0.066 0.012 0.027 0.014 0.060 0.012 0.091-0.004 0.079-0.026 0.155-0.062 0.214 0.035-0.056 0.067-0.116 0.095-0.18 0.013-0.030 0.026-0.062 0.027-0.097 0.003-0.054-0.022-0.104-0.053-0.134z"></path>
<path fill="#a3d727" style="fill: var(--color4, #a3d727)" d="M15.785 15.034c-0.032-0.056-0.082-0.083-0.13-0.104-0.156-0.069-0.319-0.111-0.482-0.124 0.058 0.005 0.11 0.043 0.166 0.062 0.060 0.020 0.122 0.035 0.181 0.062 0.095 0.044 0.19 0.133 0.214 0.271 0.013 0.076 0.002 0.16-0.030 0.224-0.030 0.059-0.075 0.1-0.121 0.131-0.067 0.047-0.139 0.079-0.208 0.122s-0.135 0.098-0.182 0.181c-0.018 0.032-0.033 0.069-0.033 0.11-0 0.052 0.024 0.097 0.053 0.129 0.056 0.063 0.129 0.086 0.2 0.102s0.143 0.029 0.207 0.074c0.064 0.046 0.118 0.134 0.117 0.236 0.016-0.070-0.003-0.149-0.037-0.205s-0.080-0.093-0.127-0.124c-0.047-0.032-0.095-0.060-0.137-0.103-0.019-0.019-0.037-0.043-0.046-0.073-0.016-0.052-0.002-0.114 0.024-0.157s0.061-0.071 0.096-0.098 0.139-0.113 0.204-0.178c0.033-0.034 0.066-0.070 0.088-0.12 0.035-0.081 0.033-0.184 0.021-0.278-0.007-0.050-0.017-0.102-0.039-0.142z"></path>
<path fill="#a3d727" style="fill: var(--color4, #a3d727)" d="M16.001 15.909c-0.009-0.009-0.017-0.020-0.025-0.032 0.008 0.012 0.016 0.023 0.025 0.032z"></path>
<path fill="#a3d727" style="fill: var(--color4, #a3d727)" d="M16.603 15.976c-0.042-0.019-0.087-0.023-0.131-0.026-0.085-0.005-0.17-0.004-0.254 0.005-0.043 0.004-0.087 0.010-0.13 0.002-0.032-0.007-0.062-0.022-0.088-0.048 0.056 0.064 0.122 0.087 0.197 0.094 0.074 0.008 0.152 0.009 0.216 0.062 0.013 0.011 0.025 0.023 0.032 0.042 0.011 0.030 0.007 0.068-0.006 0.096s-0.033 0.049-0.052 0.067c-0.15 0.139-0.33 0.195-0.5 0.274-0.092 0.043-0.182 0.093-0.269 0.151-0.102 0.067-0.209 0.158-0.241 0.31-0.015 0.070-0.010 0.153 0.024 0.209 0.029 0.048 0.073 0.071 0.117 0.085 0.183 0.061 0.382 0.015 0.558 0.11-0.138-0.095-0.298-0.1-0.446-0.159-0.049-0.020-0.103-0.054-0.119-0.122-0.009-0.039-0.004-0.081 0.006-0.119 0.040-0.156 0.151-0.25 0.256-0.321 0.111-0.075 0.225-0.139 0.343-0.191 0.165-0.074 0.34-0.128 0.481-0.272 0.024-0.024 0.047-0.052 0.060-0.089s0.014-0.085-0.004-0.118c-0.012-0.021-0.031-0.033-0.050-0.041z"></path>
<path fill="#a3d727" style="fill: var(--color4, #a3d727)" d="M15.667 16.192c0.007 0.010 0.014 0.021 0.021 0.032-0.006-0.012-0.013-0.023-0.021-0.032z"></path>
<path fill="#a3d727" style="fill: var(--color4, #a3d727)" d="M15.622 15.741c-0.037 0.025-0.075 0.048-0.106 0.085s-0.053 0.095-0.046 0.152c0.009 0.067 0.055 0.109 0.098 0.137 0.034 0.022 0.071 0.042 0.098 0.076-0.025-0.037-0.054-0.070-0.084-0.098s-0.067-0.057-0.072-0.107c-0.002-0.025 0.004-0.050 0.013-0.072 0.057-0.142 0.204-0.175 0.243-0.335-0.038 0.068-0.090 0.123-0.145 0.16z"></path>
<path fill="#a3d727" style="fill: var(--color4, #a3d727)" d="M16.111 17.268c-0.016 0.001-0.033 0.004-0.049 0.006 0.005 0.001 0.009 0.001 0.014 0.002 0.050 0.011 0.099 0.042 0.13 0.098 0.026 0.048 0.037 0.109 0.039 0.169 0.009 0.228-0.094 0.437-0.215 0.588 0.128-0.128 0.227-0.312 0.281-0.52 0.024-0.090 0.036-0.201-0.007-0.274-0.044-0.075-0.124-0.075-0.193-0.070z"></path>
<path fill="#a3d727" style="fill: var(--color4, #a3d727)" d="M15.936 17.281c0.040 0.006 0.083-0.001 0.126-0.006-0.041-0.006-0.088-0.009-0.126 0.006z"></path>
<path fill="#a3d727" style="fill: var(--color4, #a3d727)" d="M14.751 16.305c-0.025-0.030-0.038-0.075-0.048-0.119-0.010-0.048-0.017-0.098-0.015-0.148 0.007-0.175 0.116-0.29 0.137-0.453-0.033 0.047-0.053 0.123-0.079 0.178-0.053 0.112-0.101 0.23-0.096 0.37 0.004 0.109 0.046 0.218 0.115 0.265 0.043 0.029 0.092 0.033 0.14 0.036 0.088 0.006 0.176 0.012 0.264 0.018-0.118-0.052-0.244-0.051-0.361-0.106-0.020-0.010-0.040-0.021-0.057-0.041z"></path>
<path fill="#a3d727" style="fill: var(--color4, #a3d727)" d="M16.471 15.504c0-0.020 0.008-0.039 0.016-0.056 0.037-0.074 0.085-0.134 0.124-0.205 0.035-0.064 0.068-0.15 0.059-0.234-0.005 0.060-0.012 0.111-0.039 0.161-0.025 0.046-0.059 0.082-0.093 0.114-0.043 0.041-0.092 0.086-0.105 0.158-0.012 0.063 0.009 0.135 0.049 0.167 0.027 0.021 0.059 0.025 0.089 0.028 0.087 0.011 0.173 0.029 0.258 0.054-0.096-0.063-0.21-0.044-0.307-0.104-0.025-0.016-0.052-0.044-0.051-0.084z"></path>
<path fill="#a3d727" style="fill: var(--color4, #a3d727)" d="M17.090 16.456c-0.015 0.013-0.031 0.024-0.047 0.035 0.016-0.009 0.032-0.021 0.047-0.035z"></path>
<path fill="#a3d727" style="fill: var(--color4, #a3d727)" d="M17.266 15.268c0.008-0.001 0.016-0.002 0.024-0.002-0.008 0-0.016 0.001-0.024 0.002z"></path>
<path fill="#a3d727" style="fill: var(--color4, #a3d727)" d="M17.132 15.342c0.039-0.043 0.086-0.066 0.135-0.073-0.087 0.009-0.188 0.035-0.21 0.174-0.015 0.095 0.025 0.188 0.060 0.271 0.063 0.148 0.12 0.317 0.097 0.487-0.014 0.104-0.060 0.198-0.123 0.256 0.041-0.033 0.079-0.074 0.11-0.125 0.042-0.071 0.068-0.163 0.061-0.254-0.005-0.065-0.026-0.124-0.046-0.183-0.034-0.096-0.067-0.191-0.101-0.287-0.021-0.060-0.042-0.13-0.025-0.192 0.009-0.030 0.025-0.054 0.043-0.073z"></path>
<path fill="#a3d727" style="fill: var(--color4, #a3d727)" d="M16.456 17.148c0.007 0.007 0.014 0.014 0.022 0.021-0.007-0.007-0.014-0.014-0.022-0.021z"></path>
<path fill="#a3d727" style="fill: var(--color4, #a3d727)" d="M16.338 16.801c0.035-0.021 0.073-0.028 0.11-0.035 0.16-0.033 0.317-0.098 0.465-0.192-0.174 0.111-0.368 0.104-0.553 0.141-0.039 0.008-0.077 0.018-0.113 0.040s-0.068 0.058-0.086 0.107c-0.005 0.013-0.009 0.028-0.008 0.043 0.002 0.026 0.019 0.044 0.035 0.057 0.085 0.072 0.185 0.108 0.267 0.184-0.045-0.043-0.089-0.088-0.132-0.133-0.020-0.021-0.041-0.045-0.048-0.079-0.011-0.056 0.024-0.111 0.062-0.134z"></path>
<path fill="#a3d727" style="fill: var(--color4, #a3d727)" d="M15.925 14.048c0.040-0.037 0.088-0.051 0.135-0.067 0.102-0.034 0.203-0.075 0.302-0.123-0.124 0.037-0.248 0.076-0.372 0.108-0.025 0.007-0.050 0.013-0.075 0.024-0.050 0.023-0.096 0.066-0.129 0.123-0.011 0.019-0.021 0.039-0.027 0.062-0.013 0.052-0.002 0.111 0.022 0.154s0.059 0.070 0.096 0.087c0.037 0.017 0.075 0.023 0.114 0.031 0.060 0.012 0.12 0.028 0.178 0.056s0.112 0.070 0.156 0.131c-0.064-0.119-0.167-0.182-0.269-0.22-0.042-0.015-0.085-0.027-0.122-0.056s-0.071-0.079-0.075-0.14c-0.005-0.068 0.027-0.132 0.067-0.169z"></path>
</symbol>
</defs>
</svg>
